<?xml version="1.0" encoding="utf-8"?>
<!-- Generator: Adobe Illustrator 19.2.1, SVG Export Plug-In . SVG Version: 6.00 Build 0)  -->
<svg version="1.1" id="Calque_1" xmlns="http://www.w3.org/2000/svg" xmlns:xlink="http://www.w3.org/1999/xlink" x="0px" y="0px"
	 viewBox="0 0 432 432" style="enable-background:new 0 0 432 432;" xml:space="preserve">
<style type="text/css">
	.st0{fill:#8CC63F;}
	.st1{fill:#F7931E;}
	.st2{fill:#39B54A;}
	.st3{fill:#61C46E;}
	.st4{fill:#0071BC;}
	.st5{fill:#CCCCCC;}
	.st6{fill:#999999;}
	.st7{fill:#FFFFFF;}
	.st8{fill:#666666;}
	.st9{fill:#BDCCD4;}
	.st10{fill:none;}
	.st11{fill:#29ABE2;}
	.st12{fill:#005D9C;}
	.st13{fill:#A38161;}
	.st14{fill:#D1B08A;}
	.st15{fill:#FBB03B;}
	.st16{fill:#ED1C24;}
	.st17{fill:#D44A50;}
	.st18{fill:#FF3333;}
	.st19{fill:#F15A24;}
	.st20{fill:#FBB80D;}
	.st21{fill:#FBC53B;}
	.st22{fill:#42210B;}
	.st23{fill:#E6E6E6;}
	.st24{fill:#D6D0D0;}
	.st25{fill:#C1E8E8;}
	.st26{fill:#1A1A1A;}
	.st27{fill:#99FFFF;}
	.st28{fill:#FCEE21;}
	.st29{fill:#00A99D;}
	.st30{fill:#22B573;}
	.st31{fill:#DBC0A2;}
	.st32{fill:#B5926B;}
	.st33{fill:#A67C52;}
	.st34{fill:#754C24;}
	.st35{fill:#FFADAD;}
	.st36{fill:#C7B299;}
	.st37{fill:#998675;}
	.st38{fill:#534741;}
	.st39{fill:#FF8C8C;}
	.st40{fill:#EBFCFC;}
	.st41{fill:#D4145A;}
	.st42{fill:#FF00FF;}
	.st43{fill:#FFCCCC;}
	.st44{fill:#FBDECE;}
	.st45{fill:#FF9EC2;}
	.st46{fill:#FF7BAC;}
	.st47{fill:#9E005D;}
	.st48{fill:#FFC600;}
	.st49{fill:#B1337D;}
	.st50{fill:#ED1E79;}
	.st51{fill:#662D91;}
	.st52{fill:#BA9BC9;}
	.st53{fill:#FFD133;}
	.st54{fill:#F79C7C;}
	.st55{fill:#FFDD66;}
	.st56{fill:#F2F2F2;}
	.st57{fill:#C1272D;}
	.st58{fill:#E8FDFF;}
	.st59{fill:#64AB05;}
	.st60{fill:#CCFFFF;}
	.st61{fill:#A9DDF3;}
	.st62{fill:#FFFF00;}
	.st63{fill:#B3B3B3;}
	.st64{fill:#009245;}
	.st65{fill:#FBD3A8;}
	.st66{fill:#FFD6E5;}
	.st67{fill:#FF2B7A;}
	.st68{fill:#785E42;}
	.st69{fill:#D99443;}
	.st70{fill:#66CBC4;}
	.st71{fill:#4D4D4D;}
	.st72{fill:#6B3310;}
	.st73{fill:#FEEFD8;}
	.st74{fill:#D10008;}
	.st75{fill:#FABE78;}
	.st76{fill:#E6ECF0;}
	.st77{fill:#D9E021;}
	.st78{fill:#FDD089;}
	.st79{fill:#FBB400;}
	.st80{fill:#FDDFB1;}
	.st81{fill:#FCC062;}
	.st82{fill:#DAE2E7;}
	.st83{fill:#DEE6EA;}
	.st84{fill:#F9A94B;}
	.st85{fill:#8C6239;}
	.st86{fill:#FF5258;}
	.st87{fill:#FBCB2D;}
	.st88{fill:#F3E3FF;}
	.st89{fill:#00877E;}
	.st90{fill:#CFEDD3;}
	.st91{fill:#ED9396;}
	.st92{fill:#ED454B;}
	.st93{fill:#F56E00;}
	.st94{fill:#CC5C00;}
	.st95{fill:#FFAA00;}
	.st96{fill:#D17100;}
	.st97{fill:#A10006;}
	.st98{fill:#7D0005;}
	.st99{fill:#333333;}
	.st100{fill:#CA5300;}
	.st101{fill:#C96D00;}
	.st102{fill:#006837;}
	.st103{fill:#CDAE78;}
	.st104{fill:#C96F06;}
	.st105{fill:#E0640D;}
	.st106{fill:#FFD26A;}
	.st107{fill:#7B9600;}
	.st108{fill:#CEDEDE;}
	.st109{fill:#5C3303;}
</style>
<g>
	<g>
		<path class="st0" d="M383.9,241.8C383.9,241.8,383.9,241.8,383.9,241.8c1.8-3,3.8-6.3,6.4-8.6c-1.6-1.5-3.2-3.2-3.7-5.3
			c-0.5-2.1,0.4-4.7,2.4-5.6c-2.5-0.9-4.9-2.2-6.3-4.4c-1.4-2.2-1.5-5.4,0.5-7.2c-2.7,0.3-5.6,0.3-8.2-0.7c-2.6-1-4.8-3.1-5.4-5.8
			c-2,2-4.6,3.4-7.4,3.3c-2.8-0.1-5.6-1.9-6.2-4.6c-0.7,1.5-0.7,2.3-1.8,3.6c-1,1.5-2.8,2.4-4.6,2.3c-1.8-0.1-3.5-1.3-4.2-2.9
			c-2.8,5.1-9.7,7.4-15.1,5.1c-0.2,3.6-2.1,7-5.1,9c-1.3,0.9-2.8,1.5-4.3,1.4c-1.5-0.1-3.5-0.1-4.1-1.5c2.2,5.4-3.1,11.5-8.8,12
			c1,2.6,1.4,5.5,0.4,8.1c-1,2.6-3.9,4.5-6.6,3.8c1.4,2.9,0.6,6.8-1.9,8.9c-2.5,2.1-6.4,2.2-9.1,0.3c-0.1,2.9-2.6,5.5-5.4,5.9
			c-2.9,0.5-5.9-1.1-7.3-3.6c-1.4-2.5-1.2-5.8,0.3-8.3c-1.5,1.5-4.2,1.4-5.9,0c-1.6-1.4-2.3-3.7-2-5.8c0.2-1.8,1-3.5,2.2-4.8
			c-2.5,1.9-6.9,0.3-8.5-2.4c-1.5-2.7-1.3-6-0.9-9.1c-3.3,1.6-7.6,1-10.4-1.4c-1.9-1.7-3-4.2-3.1-6.8c7.6,0.9,15.9,3.7,22.4,7.4
			c0.2,0.5,0.4,0.9,0.5,1.4c0.5,1.5,2.5,1.4,2.7-0.2c0.2-1.4,0-2.8-0.4-4.2c1.6-5.4,4.6-10.4,8.7-14.4c4.5-4.4,12.4-8.1,19.1-9.5
			c0.5,0.2,1,0.5,1.5,0.7c1,0.6,2.4-0.2,2.1-1.4c-0.3-1.6-0.9-2.4-1.9-2.9c-0.4-2.9-0.5-5.8-0.1-8.6c0.6-3.9,2.2-7.8,4.9-10.6
			c4.2-4.3,12.1-5.7,18.7-6c0.8,0.4,1.5,0.7,2.3,1.1c1,0.5,2.4-0.1,2.1-1.4c-0.3-1.3-1-2.1-2-2.7c-1.2-7.1-0.6-14.4,1.8-21.2
			c2.5-6.8,5.2-17.6,13.5-26.9c1.2-0.1,2.2-0.4,3.4-1.6c0.8-0.8,0.5-2.4-0.8-2.4c-9,0-18-1.2-27-0.8c-13.1,0.6-25.8,3.6-37.8,9.1
			c-6.8,3.2-13.3,7.2-19.3,11.8c-3.1,2.4-6.1,5.1-8.7,8.1c-1,1.2-1.7,2.2-2.2,3c-0.5-1.5-0.9-3.1-1-4.6c-0.1-1.3,0-2.6,0.3-3.8
			c1.2-5.7,7.8-10.9,12.8-14c-5-4.7-17.4-16.5-8.3-35.7c-11.1,7.3-19,11.5-26.5,16.9c-6.2,4.5-11.6,10.1-15.9,16.4
			c-0.6,0.9-1.2,1.9-1.8,2.9c-3.5,0.1-7.2,0.2-10.3-1.5c-3.1-1.6-5.3-5.6-3.8-8.8c-2.6,1.9-6.2,2.3-9.2,1.2c-3-1.1-5.4-3.9-6.1-7
			c-1.8,3.1-7.6,5.3-12.9,3.3c0.4-6.4,3.1-18.5,3.1-18.5c0.6-4-2.4-1.5-2.4-1.5s-6.3,8.6-9.1,14c-0.4-0.3-0.7-0.6-1.1-0.9
			c-5.5,7-10.7,4.7-14.8,1.2c0.4,2.2,0.4,4.2,0.3,6c-1.2-0.2-2.7-0.2-4.1-0.2c-2.8-5.2-5.9-15.3-5.9-15.3c-1.5-3.3-2.6,0-2.6,0
			s-0.6,10.1,0,15.5c0.1,1.4,0.4,2.4,0.8,3.2c1.1,2.4,2.7,2.5,2.7,2.5c0.7,0.4,1.6,0.3,2.6-0.1c-1,0.4-1.9,0.6-2.6,0.1
			c0,0-1.7-0.1-2.7-2.5c0,0,0,0,0,0.1c-0.5,0.8-0.8,1.7-0.9,2.8c0,0,0,0.1,0,0.1c0,0.1,0,0.2,0,0.3c0,2.2,0.2,6.1,3,6.3
			c-1.4,4.2,0.7,11.4,2.6,15.4c-4.1,4.3-10.5,5.2-15.7,8.1c-1.4,0.8-2.8,1.8-3.6,3.2c-0.8,1.5-0.9,3.4-0.8,5.1
			c0.6,7,7.8,15.9,16.1,18.5c0,0,12.5,1,9.2,5.7c-1.3-0.1-1.9,3.9-0.2,4.7c1.7,0.8,6.4,1.9,10.9,0.5c0.3-0.1,0.7-0.2,1-0.4
			c3.6-0.8,12.2-3.8,20.9-13.8c0.3-0.5,2-2.8,3.7-5c1.6-2.1,3.2-4.1,3.7-4.4c1-0.7,2.3-0.9,3.3-0.3c0.9,0.5,1.4,1.6,1.6,2.7
			c0.8,3,0.6,6.3-0.5,9.2c-1.4,3.8-4.2,6.9-6.6,10.2s-4.4,7.2-3.8,11.3c-3.4,2.4-6.5,5.5-9,9c-8.5,3.9-19.8,8.8-27,10.2
			c-12.6,2.6-6.1,13.3-2.9,14.8c3.1,1.5,5.3-2.1,4.3-3.3c-1-1.3-0.4-6,0.4-5.6c0.8,0.4,1.4,3.4,2.3,2.5c1-0.9,1-3.3,2.2-3.4
			c0.9-0.1,9.5-0.9,14.8-1.4c-0.2,1.2-0.3,2.4-0.2,3.6c0,3.1,0.8,6.5,3.1,8.6c-1.8,3.5-3.3,7.9-4,12.2c-4.7-0.5-9.2,3.5-11.1,7.1
			c-2.2,4.1-2.6,8.9-2.3,13.6c0.3,5.8,1.8,11.7,5.3,16.4c4.3,5.7,11.1,8.8,16.3,13.6c2.7,2.4,5.1,6.2,3.5,9.4
			c-1.8,3.5-6.9,3.3-10.5,2c-4.6-1.6-8.8-4.3-13.6-4.9c-4.8-0.6-10.6,1.9-11.2,6.7c-0.5,3.4,2,6.8,5.2,7.9c3.2,1.1,6.9,0.3,9.7-1.8
			c-1,3.6-0.4,7.6,1.2,11c0.5,1,1.1,2,1.9,2.6c1,0.7,2.2,0.9,3.3,0.9c2.2,0,4.5-1,5.6-2.8c1.5-2.5,0.8-6.2,3-8c-0.7,3,0.8,6,3.3,7.7
			c0.9,0.6,1.9,1,3,1c1.8,0,3.4-1.1,4.3-2.6c0.9-1.5,1.3-3.3,1.3-5c0-1-0.1-2,0.1-2.9c0.7-3.1,4.2-4.6,7.4-4.7c3.1,0,6.2,1,9.4,1
			c2.6,0,5.5,0.2,5-9.7c4.3,3.4,8.8,6.7,12.5,10.7c1.9,2.1,3.7,4.7,3.6,7.5c-0.3,4.6-5.3,7.4-9.8,8c-4.5,0.6-9.3-0.1-13.6,1.6
			c-0.9,0.4-1.9,0.9-2.6,1.6c-2.3,2.5-0.8,6.9,2.2,8.6c2.9,1.7,6.6,1.4,9.9,0.7c2.9-0.6,5.8-1.5,8.6-2.7c-1,1.7-2,3.4-2.2,5.4
			c-0.2,1.9,0.5,4.1,2.2,5.1c2.9,1.6,6.3-1,8.6-3.4c2.2-2.3,4.4-4.6,6.5-6.9c0.2,1.6-0.6,3.1-1.1,4.6c-0.5,1.5-0.6,3.5,0.7,4.4
			c1.2,0.9,3,0.4,4.1-0.6c1.1-1.1,1.6-2.5,2.3-3.9c2.7-5.6,7.9-9.9,13.9-11.7c1.9-0.6,4.4-1.8,3.7-3.7c-0.3-0.7-1-1.1-1.7-1.4
			c-4.1-1.6-9.1,0.8-13-1.2c-2-1-3.3-3-4.5-5c-0.2-0.3-0.4-0.6-0.6-0.9c0.3,0.1,0.7,0.2,1,0.3c11.3,4.5,24,5.7,35.9,2.8
			c11.8-2.9,22.7-9.7,30.5-19.2c3.5-0.2,7-1.2,9.9-3.1c7.6-4.8,12.3-13.1,15.3-21.5c3-8.5,4.6-17.4,7.7-25.8
			c1.2-3.2,2.6-6.4,4.4-9.3c0.8-1.3,1.6-2.6,2.5-3.8c2.4-3.2,5.3-6.1,8.8-8.1c3.3-2,7.2-3.2,11-2.8c3.8,0.4,9.2,1.7,10.5,8.9
			c-4.7,3-9.5,5.9-14.2,8.9c-1.2,0.7-2.4,1.5-3.1,2.7c-0.8,1.2-0.9,2.8-1,4.2c-0.6,11.1-0.2,22.2,0.2,33.2l-0.2,0.7
			c10.6-4,20.8-9,30.5-14.9c1.3-0.8,2.7-1.7,3.5-3c1-1.7,0.9-3.8,0.7-5.8C386.1,254,385.5,246.1,383.9,241.8z M249,170.3
			c0.5-2.2,1.6-4.6,2.9-6.9c0.8-1.4,1.7-2.7,2.7-4c2.3,4.5,6.3,10.1,6.3,15.2c-0.1,1.2-0.3,2.5-0.6,3.7c-0.1,0.7-0.3,1.3-0.5,1.9
			c-1.5,4.6-4.2,8.3-7.5,11.7c-0.3,0.3-0.5,0.5-0.8,0.8c-5.4,5.3-10.8,9.8-17,12.7c-0.2,0.1-0.3,0.2-0.5,0.2
			c-0.6,0.3-1.2,0.5-1.9,0.8c-2.4,0.8-5,0.7-7.1-0.7c-2.7-1.9-3.5-6.4-1-8.6c-0.6-0.2-1.1-0.5-1.7-0.8c1.2-0.8,2.4-1.6,3.6-2.4
			c6.8-3.9,16.4-6.4,24.2-6.3C248.1,182.2,247.6,176,249,170.3z"/>
		<path d="M157,177.5c1.2-0.4,2.1-0.8,4-1.7c3.3-1.6,6.2-4.3,7.1-7.8c0.4-1.5,0-3.5-1.5-3.8c-0.8-0.2-1.7,0.3-2.4,0.8
			c-2.5,1.8-4.5,4.1-7,5.8c-3.2,2.2-7.2,3.2-11.1,2.9c-3.5-0.3-7-1.6-10.4-0.7c0,0,12.5,1,9.2,5.7
			C146.2,178.7,151.4,179.3,157,177.5z"/>
		<g>
			<g>
				<path class="st64" d="M317.3,272.4c-15.3,19.4-36.1,33.4-63.4,35.8c-13.5,1.1-20.5,0.7-24.2,0c0.3,2.7,1.7,5.3,3.1,7.7
					c0.3,0.1,0.7,0.2,1,0.3c11.3,4.5,24,5.7,35.9,2.8c11.8-2.9,22.7-9.7,30.5-19.2c3.5-0.2,7-1.2,9.9-3.1
					c7.6-4.8,12.3-13.1,15.3-21.6c3-8.5,4.6-17.4,7.7-25.8c1.2-3.2,2.6-6.4,4.4-9.3C331.1,247.5,323.3,264.8,317.3,272.4z"/>
			</g>
			<g>
				<path class="st64" d="M190.6,271.2c-5.5-7.9-13.1-22.3-14.9-30.7c-1.5-6.9-1.9-14.2,0-21c2.6-9.3,9.1-17.1,11.8-26.3
					c0.9-3,1.3-6.1,2-9.2c1.5-7,4.2-13.6,6.8-20.3c1.6-3.9,2.5-6.2,1.8-10.4c-0.4-2.5-1.3-4.9-3-6.7c-1.8-1.7-4.6-2.5-6.8-1.4
					c-2.7,1.4-3.4,4.8-4.1,7.7c-1.3,5.8-3.5,11.4-6.4,16.6c0.3-0.5,2-2.8,3.7-5c1.6-2.1,3.2-4.1,3.7-4.4c1-0.7,2.3-0.9,3.3-0.3
					c0.9,0.5,1.4,1.6,1.6,2.7c0.8,3,0.6,6.3-0.5,9.2c-1.4,3.8-4.2,6.9-6.6,10.2c-2.4,3.3-4.4,7.2-3.8,11.3c-3.4,2.4-6.5,5.5-9,9
					c-3,4.2-5.2,8.9-5.9,13.8c-0.2,1.2-0.3,2.4-0.2,3.6c0,3.1,0.8,6.5,3.1,8.6c-1.8,3.5-3.3,7.9-4,12.2c-0.5,3.5-0.5,7.1,0.3,10.2
					c1.8,7,6.7,13.2,13.4,16c0,0,4.9,14.7,14.8,18.9c-1.5-3.5-1.9-7.3-1.5-11.1C190.1,273.3,190.3,272.3,190.6,271.2z"/>
			</g>
		</g>
		<path class="st2" d="M348.6,113.2c-9,0-18-1.2-27-0.8c-13.1,0.6-25.8,3.6-37.8,9.1c-6.8,3.2-13.3,7.2-19.3,11.8
			c-3.1,2.4-6.1,5.1-8.7,8.1c-1,1.2-1.7,2.2-2.2,3c-0.5-1.5-0.9-3.1-1-4.6c-0.1-1.3,0-2.6,0.3-3.8c1.2-5.7,7.8-10.9,12.8-14
			c-5-4.7-17.4-16.5-8.3-35.7c-11.1,7.3-19,11.5-26.5,16.9c-6.2,4.5-11.6,10.1-15.9,16.4c-0.6,0.9-1.2,1.9-1.8,2.9c0,0,0,0,0.1,0
			c-1.1,3.4-0.6,7.3,1.5,10.2c2,2.9,5.5,4.8,9,5c-2.7,3.4-4.7,7.5-4.7,11.8s2.6,8.8,6.6,10.2c-2.4,3.2-4.9,6.6-5.3,10.6
			c-0.4,4,2.3,8.6,6.3,8.7c-4.7,2.1-7.9,7.4-7.4,12.6c0.2,2,1.5,3.8,3.2,4.9c1.2-0.8,2.4-1.6,3.6-2.4c6.8-3.9,16.4-6.4,24.2-6.3
			c-2.3-5.5-2.7-11.6-1.3-17.4c0.5-2.2,1.6-4.6,2.9-6.9c0.8-1.4,1.7-2.7,2.7-4c2.3,4.5,6.3,10.1,6.3,15.2c-0.1,1.2-0.3,2.5-0.6,3.7
			c-0.1,0.7-0.3,1.3-0.5,1.9c-1.5,4.6-4.2,8.3-7.5,11.7c-0.3,0.3-0.5,0.5-0.8,0.8c-5.4,5.3-10.8,9.8-17,12.7
			c-0.2,0.1-0.3,0.2-0.5,0.2c-0.6,0.3-1.2,0.5-1.9,0.8c-3.4,1.3-7,2.2-11,2.6c-0.3,0-0.7,0-1,0c0,0,0,0-0.1,0c-0.4,0-0.7,0.1-1,0.1
			c-2.6,0-5.1-0.3-7.7-0.8c-0.2,0-0.4,0-0.6,0.1c-0.5-4.5-1.4-9-2.7-11c-3-4.4-8.4-3.8-10,0.5l1.4,16.8c0,0-7.5,0.5-16,21.8
			c-0.8,1.9-1.1,3.5-1.2,4.9c-0.6,0.3-1.1,0.7-1.3,1.1c-0.4,0.9,0.4,2,1.5,1.5c1.3,5.1,7.4,5.7,9.8,4.8c3.3-1.2,2.1-5.3,0.5-5.4
			c-1.6-0.2-3.2-2.8-3.1-3.6c0.3-2.6,1.5-3.2,2.2-4.2c2.9-4.5,7-7,9.9-8.4c2.4-1.1,4.7-1.7,6.1-1.9c3.8-0.4,3.7-5.8,3.7-5.8
			s-0.1-3.3-0.5-7.4c0.6,0.6,1.3,0.9,2.4,1.2c3,0.8,6.1,0.9,9.3,0.7c0.3,0.1,0.6,0.1,0.9-0.1c0.1,0,0.1,0,0.2-0.1
			c0.6,0,1.3-0.1,2.3-0.2c0,0,0,0,0.1,0c3.6-0.6,7.1-1.7,10.4-3.1c6.5-2.6,12.3-7.6,17.3-12.4c6.7,7.8,14.6,16.5,18.2,26.2
			c0.2,0.5,0.4,0.9,0.5,1.4c0.5,1.5,2.5,1.4,2.7-0.2c0.2-1.4,0-2.8-0.4-4.2c-1.2-3.6-4.1-7.3-5.8-10.1c-3.6-5.8-7.7-11.2-12.2-16.2
			c3.2-3.5,6-7.4,7.9-11.8c12.9,3.7,25.9,8,37.9,14.2c0.5,0.2,1,0.5,1.5,0.7c1,0.6,2.4-0.2,2.1-1.4c-0.3-1.6-0.9-2.4-1.9-2.9
			c-0.8-0.5-1.9-0.8-3.1-1.4c-3.6-1.6-7.2-3.1-10.8-4.7c-8-3.4-16-6.6-24.3-9.1c1.6-8.7-3.8-14.8-7.3-22.4c0.5-0.5,1-0.9,1.5-1.4
			c0.3-0.2,0.4-0.6,0.4-0.9c2.2,0.1,4.4,0.2,6.6,0.4c5.9,0.4,11.8,1,17.6,1.9c14.7,2.2,29.4,5.8,42.9,12.2c0.8,0.4,1.5,0.7,2.3,1.1
			c1,0.5,2.4-0.1,2.1-1.4c-0.3-1.3-1-2.1-2-2.7c-0.9-0.5-1.9-0.9-3-1.4c-5.1-2.1-10.2-4-15.5-5.7c-17.5-5.6-35.9-9-54.3-9
			c0,0,0-0.1-0.1-0.1c0.9-3.4,5.2-6.3,7.7-8.4c3-2.6,6.1-5.1,9.4-7.4c8.7-6.1,18.3-10.7,28.7-12.9c9.3-2,18.9-2.7,28.4-3.1
			c3.7-0.1,7.4-0.2,11-0.2c1.2,0,2.1,0.1,3,0c1.2-0.1,2.2-0.4,3.4-1.6C350.2,114.8,349.9,113.2,348.6,113.2z"/>
		<path d="M173.9,91.2c0.6-4-2.4-1.6-2.4-1.6s-6.3,8.6-9.1,14c-0.1,0.1-0.1,0.2-0.2,0.3c-0.8,1.7-1.1,3-1.2,4.1
			c-0.1,2.4,1.1,3.3,1.1,3.3c1,2.2,6.7,2.2,8.7,1.2c-0.1-0.7-0.1-1.7,0-2.9c0,0,0,0,0,0c0,0,0,0,0,0c0,0,0,0,0,0
			C171.2,103.3,173.9,91.2,173.9,91.2z"/>
		<path d="M142.7,109.7c-2.8-5.2-5.9-15.3-5.9-15.3c-1.5-3.3-2.6,0-2.6,0s-0.6,10.1,0,15.5c0.1,1.4,0.4,2.4,0.8,3.2
			c1.1,2.4,2.7,2.5,2.7,2.5c1.9,1.1,5.5-1.7,6.5-3.5C143.9,111.6,143.3,110.7,142.7,109.7z"/>
		<g>
			<path class="st64" d="M146.6,104.2c0.4,2.2,0.4,4.2,0.3,6c0,0,0,0,0,0c0,0-0.3,3.7,0.8,7.5c0.5,1.6,1.2,3.2,2.3,4.6
				c0-1.5,0.3-2.8,0.7-4c1.5-4.4,4.9-7.3,5.1-7.5c1.6-1.1,3.3-2.1,5.3-2.4c0.1-1.1,0.4-2.4,1.2-4.1c0.1-0.1,0.1-0.2,0.2-0.3
				c-0.4-0.3-0.7-0.6-1.1-0.9C155.8,110,150.7,107.7,146.6,104.2z"/>
			<path class="st64" d="M390.3,233.4c-1.6-1.5-3.2-3.2-3.7-5.3c-0.5-2.1,0.4-4.7,2.4-5.6c-2.5-0.9-4.9-2.2-6.3-4.4
				c-1.4-2.2-1.5-5.4,0.5-7.2c-2.7,0.3-5.6,0.3-8.2-0.7c-2.6-1-4.8-3.1-5.4-5.8c-2,2-4.6,3.4-7.4,3.3c-2.8-0.1-5.6-1.9-6.2-4.6
				c-0.7,1.5-0.7,2.3-1.8,3.6c-1,1.5-2.8,2.4-4.6,2.3c-1.8-0.1-3.5-1.3-4.2-2.9c-2.8,5.1-9.7,7.4-15.1,5.1c-0.2,3.6-2.1,7-5.1,9
				c-1.3,0.9-2.8,1.5-4.3,1.4c-1.5-0.1-3.5-0.1-4.1-1.5c2.2,5.4-3.1,11.5-8.8,12c1,2.6,1.4,5.5,0.4,8.1c-1,2.6-3.9,4.5-6.6,3.8
				c1.4,2.9,0.6,6.8-1.9,8.9c-2.5,2.1-6.4,2.2-9.1,0.3c-0.1,2.9-2.6,5.5-5.4,5.9c-2.9,0.5-5.9-1.1-7.3-3.6c-1.4-2.5-1.2-5.8,0.3-8.3
				c-1.5,1.5-4.2,1.4-5.9,0c-1.6-1.4-2.3-3.7-2-5.8c0.2-1.8,1-3.5,2.2-4.8c-2.5,1.9-6.9,0.3-8.5-2.4c-1.5-2.7-1.3-6-0.9-9.1
				c-3.3,1.6-7.6,1-10.4-1.4c-1.9-1.7-3-4.2-3.1-6.8c-1.4-0.2-2.9-0.3-4.2-0.3c-4.3-0.1-8.5,0.2-12.7,0.9c3.4,1.2,7,2.2,10.3,3.5
				c10.9,4.4,19.7,13.7,23.6,24.7c1.6,4.5,2.5,9.5,5.5,13.2c4.7,5.7,13.6,6.6,20.5,3.7c6.8-2.9,11.9-8.8,16-15
				c4.1-6.2,7.5-12.9,12.4-18.5c8.5-9.9,21.2-16,34.2-16.3c10.1-0.3,21.2,3.4,26.2,12.2c0,0,3.8,9,2.4,17
				C385.7,239.1,387.7,235.7,390.3,233.4z"/>
			<path class="st64" d="M225.1,206c-2.7-1.9-3.5-6.4-1-8.6c-0.6-0.2-1.1-0.5-1.7-0.8c-1.7-1.1-3-2.9-3.2-4.9
				c-0.5-5.2,2.6-10.5,7.4-12.6c-4-0.1-6.7-4.7-6.3-8.7c0.4-4,2.9-7.4,5.3-10.6c-4.1-1.4-6.6-5.9-6.6-10.2s2-8.4,4.7-11.8
				c-3.6-0.1-7-2-9-5c-2-2.9-2.6-6.8-1.5-10.2c0,0,0,0-0.1,0c-3.5,0.1-7.2,0.2-10.3-1.5c-3.1-1.6-5.3-5.6-3.8-8.8
				c-2.6,1.9-6.2,2.3-9.2,1.2c-3-1.1-5.4-3.9-6.1-7c-1.8,3.1-7.6,5.3-12.9,3.3c0,0,0,0,0,0c0,0,0,0,0.1,0.1c0.9,0.4,1.7,0.9,2.5,1.5
				c0.3,0.2,0.5,0.4,0.8,0.6c0.2,0.2,0.4,0.3,0.6,0.5c0.4,0.3,0.8,0.7,1.2,1c1.1,0.9,2.2,1.7,3.5,2.1c4.4-0.5,10,1.2,13.8,3.6
				c6.4,3.3,11.9,8.2,16.1,14c3.3,4.6,5.8,9.7,7.2,15.2c0.9,3.6,1.5,7.2,1.7,10.9c0.6,9.5-0.8,19.2-1.4,28.8
				c-0.1,1.1-0.1,2.1-0.2,3.2c-0.1,3.1-0.1,6.4,0.4,9.5c0.2,1.5,0.6,3,1.1,4.4c0.3,0.8,0.6,1.5,1,2.3c0.2,0.3,0.4,0.6,0.5,0.9
				c0.2,0.3,0.4,0.6,0.6,0.9c0.3,0,0.7,0,1,0c4-0.3,7.6-1.2,11-2.6C229.8,207.5,227.2,207.4,225.1,206z"/>
		</g>
		<g>
			<path d="M158.3,122.6c-0.9,2.5-0.6,10.3,2.3,14.4c0.4,0.6,0.9,1.2,1.6,1.3c1.1,0.1,1.8-1.1,2.2-2.1c1.5-4.7-1.7-11.7-3.6-13.7
				C158.9,120.5,158.3,122.6,158.3,122.6z M162.4,132c0.4-0.1,1,0.8,1.2,1.9c0.2,1.2,0,2.2-0.4,2.2c-0.4,0.1-1-0.8-1.2-1.9
				C161.7,133.1,161.9,132.1,162.4,132z"/>
		</g>
		
			<ellipse transform="matrix(0.9844 -0.1759 0.1759 0.9844 -21.0477 30.7131)" class="st7" cx="162.8" cy="134.1" rx="0.8" ry="2.1"/>
		<g>
			<path d="M146.6,138.6c1.1,0.1,1.8-1.1,2.2-2.1c1.5-4.7-1.7-11.7-3.6-13.7c-1.9-2-2.5,0.1-2.5,0.1c-0.9,2.5-0.6,10.3,2.3,14.4
				C145.4,137.9,145.9,138.5,146.6,138.6z M146.9,131.9c0.4-0.1,1,0.8,1.2,1.9c0.2,1.2,0,2.2-0.4,2.2c-0.4,0.1-1-0.8-1.2-1.9
				C146.3,133,146.5,132,146.9,131.9z"/>
		</g>
		<ellipse transform="matrix(0.9844 -0.1759 0.1759 0.9844 -21.2664 27.9929)" class="st7" cx="147.3" cy="134" rx="0.8" ry="2.1"/>
		<g>
			<ellipse transform="matrix(0.8465 -0.5325 0.5325 0.8465 -65.1105 91.2496)" cx="125.7" cy="158.5" rx="1.8" ry="3.8"/>
		</g>
		<g>
			<ellipse transform="matrix(0.6366 -0.7712 0.7712 0.6366 -69.6984 170.1298)" cx="145.7" cy="159" rx="3.8" ry="1.8"/>
		</g>
	</g>
	<g>
		<g>
			<path class="st21" d="M119.3,174.4c-5.9-1.9-12.5-3.7-18.1-1.1c-5.2,2.4-8.2,7.9-12.9,11c-3.2,2.1-7,3.1-10.8,2.7
				c-7.5-0.8-14.3-6.6-21.7-5.2c-5,0.9-9.1,5-14.1,5.6c6.8,0.6,13.5,2.6,19.6,5.8c3.8,2,7.4,4.5,11.5,5.7c6,1.7,12.7,0.4,17.9-3
				c4.7-3,9.1-7.8,14.5-8.1c-0.9,0.3-1.6,1.1-1.9,2c-0.5,1.3-0.3,2.7-0.6,4c-0.5,3-3,5.5-5.9,6.2c5.3,1.6,11.5-0.7,14.5-5.4
				c1.5-2.4,2.2-5.3,3.8-7.7c4.1-6.4,19.1-4.9,22.4-10.7C131.6,178.3,125.2,176.3,119.3,174.4z"/>
		</g>
		<g>
			<g>
				<path class="st1" d="M93.9,175.1c-3.2-2.4-8.7-4.1-11.3-3.9c-2.6,0.2-5.3,2.7-7.8,3.4c-3.4,1-10.4,0.1-13.8-0.9
					c3.2,3.4,10.2,7.8,14.9,8.3C80.5,182.4,90,180.2,93.9,175.1z"/>
			</g>
		</g>
	</g>
</g>
</svg>
