<?xml version="1.0" standalone="no"?>
<!DOCTYPE svg PUBLIC "-//W3C//DTD SVG 20010904//EN"
 "http://www.w3.org/TR/2001/REC-SVG-20010904/DTD/svg10.dtd">
<svg version="1.0" xmlns="http://www.w3.org/2000/svg"
 width="1186.000000pt" height="1280.000000pt" viewBox="0 0 1186.000000 1280.000000"
 preserveAspectRatio="xMidYMid meet">
<metadata>
Created by potrace 1.15, written by Peter Selinger 2001-2017
</metadata>
<g transform="translate(0.000000,1280.000000) scale(0.100000,-0.100000)"
fill="#009688" stroke="none">
<path d="M10212 12770 c-84 -39 -137 -82 -158 -130 l-17 -39 -42 82 c-51 98
-61 106 -108 83 -43 -20 -52 -32 -53 -71 -2 -127 -4 -135 -23 -135 -10 0 -40
17 -67 39 -27 21 -65 46 -84 56 -19 10 -45 28 -57 41 -32 34 -65 31 -101 -10
l-30 -35 -34 32 c-19 18 -63 48 -99 67 -121 65 -198 43 -302 -85 -98 -121
-132 -228 -143 -447 l-7 -137 -29 24 c-16 14 -33 25 -37 25 -16 0 -61 -26 -65
-37 -3 -7 11 -47 31 -90 41 -88 53 -177 33 -238 -8 -23 -15 -33 -20 -26 -4 7
-19 19 -34 26 -24 13 -27 12 -41 -8 -24 -38 -44 -103 -105 -351 -33 -131 -62
-241 -64 -244 -3 -2 -24 34 -47 82 -23 47 -46 86 -50 86 -16 0 -27 -35 -34
-110 -8 -81 -57 -255 -68 -244 -4 4 -7 29 -7 55 0 38 -6 54 -26 76 -45 48 -51
29 -94 -292 -27 -199 -29 -208 -44 -196 -7 6 -18 34 -25 63 -18 78 -32 108
-47 108 -8 0 -14 -9 -14 -20 0 -13 -14 -27 -42 -41 -24 -12 -50 -28 -59 -36
-9 -7 -22 -13 -29 -11 -9 2 -20 -26 -35 -84 -19 -80 -37 -118 -54 -118 -4 0
-18 24 -32 53 l-24 52 -6 -75 c-4 -41 -7 -107 -8 -147 -2 -104 -9 -114 -38
-51 -13 29 -31 78 -40 110 -9 32 -20 58 -25 58 -4 0 -8 7 -8 16 0 9 -6 14 -12
11 -15 -4 -15 -31 -3 -203 4 -67 5 -134 1 -149 -7 -27 -7 -27 -28 -9 -35 31
-78 106 -78 136 0 17 -7 31 -16 35 -8 3 -20 17 -25 31 -5 14 -12 23 -14 20 -3
-3 -8 -80 -11 -172 -4 -148 3 -262 22 -341 3 -13 -6 -7 -27 19 -29 33 -34 36
-39 20 -4 -11 3 -40 16 -69 13 -27 24 -62 24 -77 l0 -27 -67 5 c-38 3 -76 7
-85 9 -27 5 -1 -29 38 -50 19 -10 34 -21 34 -24 0 -3 -35 -6 -78 -6 -42 0 -94
-6 -114 -13 -34 -12 -38 -17 -44 -60 -12 -74 -8 -109 15 -141 26 -36 24 -37
-99 -47 -85 -7 -146 -27 -135 -44 11 -18 71 -39 115 -39 25 -1 67 -7 94 -14
l49 -13 -284 -161 c-315 -178 -349 -197 -349 -187 0 4 -10 -2 -22 -13 -33 -30
-246 -134 -250 -123 -2 6 -19 -2 -38 -18 -19 -15 -77 -44 -127 -65 -100 -40
-107 -42 -98 -27 9 14 -6 12 -56 -6 -24 -9 -64 -18 -89 -20 -25 -2 -119 -13
-210 -24 -91 -12 -186 -19 -211 -16 -29 3 -51 0 -59 -7 -10 -10 -11 -7 -6 10
7 22 7 22 -30 7 -27 -11 -43 -13 -66 -5 -16 6 -43 8 -59 4 -17 -3 -40 -1 -52
5 -41 19 -88 31 -102 26 -8 -4 -15 -1 -15 4 0 6 -17 14 -37 18 -21 3 -66 20
-101 37 -57 27 -67 29 -125 22 -90 -12 -198 -10 -206 4 -5 7 -57 16 -127 22
-358 30 -562 51 -589 59 -88 26 -203 40 -255 30 -29 -5 -81 -10 -115 -10 -95
0 -217 -25 -389 -79 -166 -52 -191 -64 -294 -139 -171 -125 -292 -234 -352
-318 -54 -75 -462 -478 -548 -541 -209 -152 -303 -297 -347 -531 -40 -218 -75
-516 -75 -647 l0 -136 -134 -65 c-229 -110 -307 -116 -382 -31 -47 54 -92 149
-106 225 -16 86 8 199 84 392 68 172 112 265 189 397 54 92 242 373 328 490
30 41 46 72 40 77 -5 5 -10 8 -12 5 -2 -2 -62 -76 -134 -164 -223 -275 -334
-431 -425 -600 -27 -49 -46 -79 -43 -65 39 176 38 174 121 275 220 268 344
456 344 521 0 42 -26 27 -110 -63 -164 -176 -281 -360 -331 -523 -30 -97 -39
-107 -32 -34 14 148 31 213 84 316 57 113 111 179 334 402 159 161 220 246
175 246 -5 0 -47 -46 -94 -103 -47 -57 -107 -119 -134 -138 -26 -18 -70 -53
-98 -75 l-51 -42 10 39 c7 30 5 71 -7 157 -9 64 -16 145 -16 180 0 49 -3 62
-15 62 -14 0 -15 -11 -9 -73 7 -77 -6 -184 -32 -272 -19 -61 -75 -197 -80
-192 -2 2 12 96 31 208 43 253 45 327 9 395 -47 88 -156 220 -174 209 -5 -3 8
-38 29 -79 73 -142 107 -297 98 -435 -10 -141 -68 -329 -131 -423 -29 -45 -51
-63 -41 -35 9 25 64 435 76 557 6 69 10 167 8 216 -4 81 -7 95 -32 127 -35 46
-47 47 -39 5 3 -18 6 -82 6 -143 0 -91 -10 -163 -58 -415 -89 -473 -89 -474
-108 -478 -60 -11 -57 167 11 718 28 228 60 447 71 487 26 92 26 136 3 131
-14 -3 -21 -24 -34 -103 -8 -55 -38 -170 -66 -255 -28 -85 -57 -184 -64 -220
-6 -36 -15 -69 -19 -73 -4 -4 -10 47 -14 115 -7 131 -39 370 -60 453 -7 31
-18 50 -27 50 -19 0 -24 -171 -9 -309 5 -55 9 -101 7 -103 -2 -2 -26 62 -53
142 -27 80 -53 143 -59 141 -13 -5 -14 0 34 -153 82 -262 119 -450 104 -538
l-8 -50 -23 109 c-52 244 -147 495 -222 579 -46 53 -116 99 -143 95 -20 -3
-18 -6 18 -29 90 -58 160 -167 196 -308 19 -71 21 -113 23 -616 2 -407 7 -582
19 -710 9 -93 17 -177 16 -185 0 -28 -15 10 -67 165 -56 168 -97 328 -107 423
-5 40 -11 62 -20 62 -19 0 -28 -250 -16 -457 9 -152 13 -179 39 -247 17 -42
28 -76 26 -76 -8 0 -93 171 -114 230 -13 36 -29 73 -35 83 -20 29 -27 -4 -14
-66 43 -206 113 -381 194 -482 71 -88 73 -90 55 -80 -79 47 -244 162 -273 192
-29 28 -40 34 -49 25 -9 -9 2 -32 46 -96 75 -111 175 -210 317 -312 63 -46
126 -95 139 -109 l23 -25 -52 0 c-35 0 -53 -4 -57 -14 -9 -22 12 -52 45 -66
26 -10 29 -15 20 -32 -6 -11 -8 -30 -5 -43 11 -45 45 -49 349 -42 l282 7 -70
-38 c-80 -44 -97 -72 -42 -72 104 0 405 150 519 258 39 37 59 50 62 41 2 -8
14 -77 26 -154 12 -77 40 -225 62 -330 21 -104 44 -228 49 -273 12 -103 42
-186 171 -490 163 -383 150 -326 154 -685 3 -242 8 -337 24 -445 11 -75 20
-162 20 -193 0 -105 -40 -198 -134 -314 -26 -32 -48 -70 -52 -92 -10 -51 10
-169 57 -336 98 -356 121 -458 156 -702 33 -232 36 -268 36 -495 0 -183 -5
-300 -22 -464 -38 -371 -31 -442 50 -538 22 -27 45 -63 50 -81 5 -17 9 -108 9
-201 l0 -168 38 -38 c65 -65 243 -116 367 -106 115 10 335 85 335 115 0 24
-64 151 -92 182 -12 14 -41 40 -63 56 -23 18 -61 65 -87 109 -81 135 -174 387
-145 397 6 2 3 14 -8 31 -15 22 -16 32 -7 47 9 14 9 30 0 69 -6 27 -15 50 -20
50 -4 0 -3 9 4 20 10 17 10 22 1 28 -9 6 -14 51 -17 148 -2 76 -7 236 -11 354
-11 319 11 568 66 765 22 81 38 153 35 160 -2 7 -1 26 4 42 l8 28 1 -34 c1
-41 26 -87 181 -331 65 -102 139 -225 165 -275 27 -49 65 -115 85 -145 20 -30
48 -80 62 -111 14 -31 42 -82 62 -113 45 -70 65 -165 141 -675 26 -168 26
-177 10 -239 -25 -102 -45 -214 -45 -258 0 -67 64 -116 202 -153 114 -32 438
-80 537 -81 18 0 6 146 -20 241 -23 83 -23 78 -1 72 18 -4 18 0 6 94 -15 111
-30 162 -75 241 -46 79 -44 139 16 375 l47 188 -62 122 c-65 129 -103 187
-123 187 -14 1 -141 173 -246 335 -73 112 -155 270 -147 284 3 4 -8 43 -24 88
-16 44 -34 125 -41 180 -12 98 -12 99 16 170 67 171 140 247 414 428 323 213
350 236 637 537 297 311 330 347 406 443 55 70 138 210 138 234 0 7 15 33 33
58 l32 45 130 -6 c72 -3 261 -9 420 -12 411 -9 527 10 779 125 22 11 43 18 44
16 2 -2 -1 -26 -7 -54 -24 -114 -32 -340 -29 -831 l3 -505 -33 -95 c-74 -217
-84 -361 -52 -728 24 -279 23 -308 -26 -542 -31 -149 -68 -263 -148 -452 -76
-179 -96 -254 -96 -363 0 -87 29 -187 70 -245 37 -52 25 -107 -58 -273 -70
-139 -72 -146 -102 -311 -16 -92 -30 -170 -30 -173 0 -3 116 -3 258 -1 216 4
273 8 355 26 54 12 102 24 106 26 10 6 -28 282 -46 336 -28 85 -55 235 -57
315 -1 65 5 97 28 167 25 74 32 85 45 75 12 -10 13 -8 7 18 -11 50 -19 265
-10 265 5 0 9 28 9 62 1 98 15 315 26 398 16 120 38 199 81 290 23 47 42 101
44 120 4 49 75 186 95 183 19 -4 37 28 84 142 20 50 54 124 75 165 55 110 68
167 69 309 0 68 5 129 10 135 7 8 6 56 -2 139 -8 95 -8 142 0 184 7 33 12 168
13 306 1 194 5 268 20 345 11 58 14 99 9 103 -11 6 -3 36 16 59 16 20 67 165
71 201 6 53 102 224 160 287 19 20 42 54 51 74 9 21 19 38 22 38 16 -1 95
-144 130 -234 72 -186 73 -191 75 -836 2 -598 5 -639 46 -721 38 -73 79 -385
80 -594 0 -49 9 -175 20 -280 28 -260 44 -597 29 -606 -8 -5 -8 -8 0 -14 8 -4
12 -46 11 -123 0 -172 17 -374 36 -421 19 -48 122 -147 198 -190 28 -16 77
-37 109 -46 l59 -17 -7 -78 c-7 -76 -7 -77 22 -100 28 -22 31 -22 223 -16 187
6 436 28 448 41 11 11 -16 134 -43 192 -43 94 -64 119 -195 227 -135 111 -174
139 -182 131 -4 -4 -22 69 -77 317 -7 28 -5 38 5 42 23 9 16 66 -15 116 -25
40 -27 48 -13 56 12 8 13 14 3 33 -7 13 -11 31 -8 41 2 9 -7 57 -20 106 -32
118 -39 167 -54 374 -9 135 -9 192 0 250 8 49 8 76 2 78 -11 4 -3 202 9 215 4
4 5 59 3 122 -2 86 0 115 9 115 9 0 9 3 0 12 -18 18 -15 28 9 28 19 0 19 1 5
16 -18 18 -21 64 -4 64 8 0 9 30 5 110 -4 61 -3 109 1 106 4 -2 8 88 9 201 1
113 7 240 13 282 23 150 101 466 119 481 4 3 17 39 30 80 24 76 63 163 86 190
7 8 16 32 19 54 4 21 18 48 30 60 18 16 23 31 21 66 -1 29 12 86 37 162 53
163 61 235 55 487 -7 246 -13 218 100 432 184 349 243 463 239 466 -2 2 14 44
36 94 46 109 98 288 98 341 0 57 -28 187 -52 236 -14 30 -17 46 -10 55 8 9 -1
52 -33 152 -25 77 -49 148 -55 157 -5 10 -10 29 -10 43 0 71 105 374 155 447
37 55 69 67 205 78 133 11 180 26 205 64 15 23 16 33 4 98 -24 127 -14 509 12
493 5 -4 9 2 9 11 0 12 10 7 37 -21 20 -21 70 -54 111 -72 60 -28 89 -50 153
-117 105 -111 146 -132 274 -141 111 -8 185 -31 296 -96 87 -50 92 -58 84
-117 -15 -109 47 -193 172 -232 86 -28 306 -39 420 -20 94 15 151 49 276 169
51 47 120 108 155 135 67 51 157 152 173 194 6 16 5 89 -5 209 l-14 185 -65
131 c-36 73 -78 161 -92 197 -37 89 -118 249 -150 296 -14 21 -53 94 -87 164
-34 69 -71 137 -83 152 -36 43 -120 223 -165 353 l-42 120 13 226 c10 178 10
236 0 274 -15 61 -72 159 -111 192 -17 13 -30 31 -30 39 0 8 -6 14 -14 14 -16
0 -76 71 -76 89 0 6 -6 11 -14 11 -14 0 -116 105 -116 119 0 5 26 11 58 13
108 10 193 69 318 220 38 46 119 141 181 211 139 159 217 274 298 442 97 200
110 247 110 390 0 100 -3 127 -20 160 -26 53 -53 56 -102 12 -21 -19 -68 -50
-105 -71 -36 -20 -72 -43 -78 -51 -7 -8 -18 -15 -24 -15 -6 0 -20 -21 -30 -48
-24 -56 -94 -135 -151 -167 -29 -16 -63 -24 -121 -28 -109 -8 -220 -50 -364
-137 -63 -38 -133 -76 -154 -85 -37 -15 -42 -15 -78 1 -21 9 -38 20 -38 23 0
3 16 17 35 29 19 13 55 46 80 74 38 39 46 54 41 74 -4 14 -2 24 4 24 5 0 10 4
10 9 0 5 -28 2 -62 -5 -87 -18 -158 -18 -158 1 0 8 36 87 80 176 44 88 80 169
80 179 0 34 -21 33 -58 -3 -43 -40 -163 -129 -168 -124 -2 2 12 51 31 110 38
114 46 197 20 197 -9 0 -27 -7 -40 -16 -29 -19 -28 -20 -45 71 -14 70 -33 105
-58 105 -9 -1 -45 -14 -80 -30z m-1312 -1116 c0 -31 -2 -35 -15 -24 -18 15
-19 32 -3 48 17 17 18 16 18 -24z m-1630 -2334 c8 -5 11 -12 8 -16 -10 -9 -38
3 -38 16 0 12 10 13 30 0z m-4119 -4607 c23 -43 69 -121 102 -173 122 -194
134 -254 72 -376 -80 -159 -369 -501 -533 -632 l-41 -33 5 98 c4 67 10 103 21
115 8 9 13 20 10 25 -11 17 12 243 27 274 9 18 16 44 16 58 1 41 44 156 57
154 8 -2 11 6 7 25 -5 27 11 71 157 415 29 70 54 127 55 127 1 0 21 -35 45
-77z"/>
</g>
</svg>
