<?xml version="1.0" encoding="utf-8"?>
<!-- Generator: Adobe Illustrator 19.2.1, SVG Export Plug-In . SVG Version: 6.00 Build 0)  -->
<svg version="1.1" id="Calque_1" xmlns="http://www.w3.org/2000/svg" xmlns:xlink="http://www.w3.org/1999/xlink" x="0px" y="0px"
	 viewBox="0 0 432 432" style="enable-background:new 0 0 432 432;" xml:space="preserve">
<style type="text/css">
	.st0{fill:#8CC63F;}
	.st1{fill:#F7931E;}
	.st2{fill:#39B54A;}
	.st3{fill:#61C46E;}
	.st4{fill:#0071BC;}
	.st5{fill:#CCCCCC;}
	.st6{fill:#999999;}
	.st7{fill:#FFFFFF;}
	.st8{fill:#666666;}
	.st9{fill:#BDCCD4;}
	.st10{fill:none;}
	.st11{fill:#29ABE2;}
	.st12{fill:#005D9C;}
	.st13{fill:#A38161;}
	.st14{fill:#D1B08A;}
	.st15{fill:#FBB03B;}
	.st16{fill:#ED1C24;}
	.st17{fill:#D44A50;}
	.st18{fill:#FF3333;}
	.st19{fill:#F15A24;}
	.st20{fill:#FBB80D;}
	.st21{fill:#FBC53B;}
	.st22{fill:#42210B;}
	.st23{fill:#E6E6E6;}
	.st24{fill:#D6D0D0;}
	.st25{fill:#C1E8E8;}
	.st26{fill:#1A1A1A;}
	.st27{fill:#99FFFF;}
	.st28{fill:#FCEE21;}
	.st29{fill:#00A99D;}
	.st30{fill:#22B573;}
	.st31{fill:#DBC0A2;}
	.st32{fill:#B5926B;}
	.st33{fill:#A67C52;}
	.st34{fill:#754C24;}
	.st35{fill:#FFADAD;}
	.st36{fill:#C7B299;}
	.st37{fill:#998675;}
	.st38{fill:#534741;}
	.st39{fill:#FF8C8C;}
	.st40{fill:#EBFCFC;}
	.st41{fill:#D4145A;}
	.st42{fill:#FF00FF;}
	.st43{fill:#FFCCCC;}
	.st44{fill:#FBDECE;}
	.st45{fill:#FF9EC2;}
	.st46{fill:#FF7BAC;}
	.st47{fill:#9E005D;}
	.st48{fill:#FFC600;}
	.st49{fill:#B1337D;}
	.st50{fill:#ED1E79;}
	.st51{fill:#662D91;}
	.st52{fill:#BA9BC9;}
	.st53{fill:#FFD133;}
	.st54{fill:#F79C7C;}
	.st55{fill:#FFDD66;}
	.st56{fill:#F2F2F2;}
	.st57{fill:#C1272D;}
	.st58{fill:#E8FDFF;}
	.st59{fill:#64AB05;}
	.st60{fill:#CCFFFF;}
	.st61{fill:#A9DDF3;}
	.st62{fill:#FFFF00;}
	.st63{fill:#B3B3B3;}
	.st64{fill:#009245;}
	.st65{fill:#FBD3A8;}
	.st66{fill:#FFD6E5;}
	.st67{fill:#FF2B7A;}
	.st68{fill:#785E42;}
	.st69{fill:#D99443;}
	.st70{fill:#66CBC4;}
	.st71{fill:#4D4D4D;}
	.st72{fill:#6B3310;}
	.st73{fill:#FEEFD8;}
	.st74{fill:#D10008;}
	.st75{fill:#FABE78;}
	.st76{fill:#E6ECF0;}
	.st77{fill:#D9E021;}
	.st78{fill:#FDD089;}
	.st79{fill:#FBB400;}
	.st80{fill:#FDDFB1;}
	.st81{fill:#FCC062;}
	.st82{fill:#DAE2E7;}
	.st83{fill:#DEE6EA;}
	.st84{fill:#F9A94B;}
	.st85{fill:#8C6239;}
	.st86{fill:#FF5258;}
	.st87{fill:#FBCB2D;}
	.st88{fill:#F3E3FF;}
	.st89{fill:#00877E;}
	.st90{fill:#CFEDD3;}
	.st91{fill:#ED9396;}
	.st92{fill:#ED454B;}
	.st93{fill:#F56E00;}
	.st94{fill:#CC5C00;}
	.st95{fill:#FFAA00;}
	.st96{fill:#D17100;}
	.st97{fill:#A10006;}
	.st98{fill:#7D0005;}
	.st99{fill:#333333;}
	.st100{fill:#CA5300;}
	.st101{fill:#C96D00;}
	.st102{fill:#006837;}
	.st103{fill:#CDAE78;}
	.st104{fill:#C96F06;}
	.st105{fill:#E0640D;}
	.st106{fill:#FFD26A;}
	.st107{fill:#7B9600;}
	.st108{fill:#CEDEDE;}
	.st109{fill:#5C3303;}
</style>
<g>
	<path class="st0" d="M371.1,193.4c0-0.1,0-0.2,0-0.3c0.1-4.4-1.2-8.6-2.5-12.8c-0.4-1.3-2-1.4-2.7-0.4c-0.6,0.9-1.2,1.8-1.9,2.7
		c-3.4-2.1-7.7-4.5-10.5-2.1c-1.8,1.5-1.9,4.1-1.9,6.2c0.1,3.4,0.5,6.7,0.5,10.1c-1.6,1.5-3.4,2.9-5.2,4.1c-0.7,0.4-1.4,0.8-2.1,1.2
		c-1.8-2.6-3.6-5.2-5.5-7.8c-1.6-2-3.4-4.7-6.4-4.2c-2.9,0.5-3.5,3.9-4.2,6.3c-0.8,2.8-1.4,5.6-1.8,8.5c-2.5,0-4.8-0.3-7-1
		c0.2-6.4-0.2-15.2-5.4-17.8c-4.5-2.2-8.3,3.2-10.7,7.8c-2.7-2.4-5.4-4.9-8.1-7.2c-0.4-0.4-0.8-0.7-1.3-1.1
		c0.7-4.1,1.2-8.3,1.2-12.5c0-2.7-0.2-6.1-2.6-7.9c-5.1-3.9-12.4,3.3-17,8.2c-1.7-0.9-3.5-1.7-5.3-2.4c-1.8-0.7-3.6-1.3-5.5-1.9
		c-0.4-4.6-0.8-9.3-2-13.7c-0.9-3.7-3.1-7.8-7.1-8.6c-7.9-1.7-12.5,12.1-14.9,19.1c-4,0-8,0.3-12,0.8c-1.9-3.4-3.8-6.7-5.8-10.1
		c-1.4-2.4-2.6-5.4-4.6-7.4c-2.6-2.6-6.2-2.8-8.4,0.3c-3,4.2-2.9,12.1-3.6,16.9c-0.1,1-0.6,2.9-1,5c-0.5,0.1-0.9,0.3-1.4,0.4
		c-0.3,0.1-0.6,0.3-0.8,0.5c-0.2,0-0.5,0-0.7,0.1c-0.8-12.4-10.5-23-23.3-22.9c-0.5,0-0.8,0.2-1.1,0.5c-4.5,0.1-8.2,2.1-11.3,5.1
		c-6.3-12-23.3-4.1-28.4,4.9c-0.6,1.1-1.2,2.4-1.7,3.9c-1.5-0.4-2.7,1.9-1.1,2.7c0.1,0.1,0.2,0.1,0.3,0.2
		c-2.1,9.5-0.5,22.5,7.7,26.5c-5,0.9-10.3,0.6-15.4-0.5c-4.2-0.9-10.3-2-13.8-4.6c-3.2-2.5-1.7-5.9-4.4-8.2c-0.3-0.3-2.3-0.7-2.5-1
		c-0.4-0.7,0.1-3.2-0.1-4.1c-0.6-2.6-2.3-4.9-4.4-6.5c-3.4-2.5-7.6-2.7-11.4-1.4c-2.9-3.5-6.7-5.8-11.2-3.5
		c-3.7,1.9-5.7,6.7-4.8,10.7c-3,0.8-5.9,2.3-8.3,4.3c-5.2,4.2-8.2,10.5-8.2,17.2c0,3.4,0.8,6.8,2.3,9.8c1.4,2.8,3.8,4.7,3.2,8.4
		c-0.2,1-1.1,1.4-1.2,2.6c-0.3,2.5,1.2,4.7,3.2,6.3c19.1,3.1,88,12.4,108.6-7.5c0.6-0.6,1.5-0.6,2.1,0c0.6,0.6,0.6,1.5,0,2.1
		c-4.5,4.3-11.1,7.6-20,9.8c-0.1,0.7-0.4,1.6-0.6,3c-1,4.7-2.3,2.8-2.3,2.8l-4.3-4.3c-7.7,1.3-16.7,1.9-27,1.9c-0.4,0-0.7,0-1.1,0
		c-0.7,2.1-1.9,5.6-2.7,6.2c-0.9,0.6-4-4-5.5-6.4c-1.4,0-2.9-0.1-4.3-0.2c-3.6-0.2-7.2-0.4-10.7-0.7c-0.7,1.8-2.1,4.7-3.1,6.1
		c-1.1,1.5-4.6-4.1-6.3-6.9c-8.9-0.9-16.5-2-21.5-2.8c1.5,8,3.8,16.4,10.9,21.2c3.9,2.7,8.2,3,12.8,2.7c6.2-0.5,11.8-0.7,17.9,0.8
		c10.6,2.6,20.4,7.7,31.1,10.2c0.2,0.1,0.5,0.1,0.7,0.1c-2.4,2-3.3,5.5-1,8.6c2.6,3.5,6.8,3.2,10.2,1.2c0.3,1.8,1.3,3.5,2.9,4.6
		c2.9,2,5.8,1.3,7.9-0.6c0.9,1.7,2.5,3,4.7,3.3c3.2,0.5,5.9-1.3,6.9-4c1.5,2.2,3.5,4.1,6.1,5.4c0.8,0.4,1.7,0.1,2.1-0.6
		c0.8,1.4,1.8,2.7,3.1,3.7c2.1,1.7,7.6,4.8,10.4,2.8c0.2-0.2,0.4-0.4,0.6-0.6c3.6,3,12.2-0.6,15.1-2.9c3.4-2.8,5.4-7.3,4.2-11.4
		c0,0,0.3,0,1,0.1c0.3,0,0.5,0.1,0.8,0.1c1.9,0.3,5.4,0.9,10.7,2.1c8.3,1.9,15,1.6,19.4,1.3c0,0.4,0,0.8,0,1.3
		c0.6,6.6,9.1,8,14.4,7.6c1.8-0.1,3.4-0.6,4.6-1.3c6.5,3.1,14.6,5.6,20.3-0.4c0.2-0.2,0.4-0.4,0.5-0.6c0.1,0.1,0.1,0.1,0.2,0.2
		c2.8,2.4,8.1,0.2,10.5-1.8c4.1-3.4,4.8-8.4,3-12.5c0,0,0.1,0,0.1,0c4.4-2.2,10.6-1.5,15.4-2.3c5.3-0.9,10.6-2.2,15.8-3.6
		c8.3-2.3,16.6-5.4,23.3-10.8c6.9-5.5,11.2-13.3,13.5-21.8c1.3-4.9,1.9-10,2.1-15.1C370.9,211.2,371.5,196.2,371.1,193.4z M99,182.4
		c-1.1,0-1.9-2-1.8-4.3s1-4.2,2.1-4.2c1.1,0,1.9,2,1.8,4.3C101,180.6,100,182.5,99,182.4z M178.7,197.8c-6,0-11.3-3.9-14.2-9.7
		c-2.6,3.4-6.4,5.6-10.5,5.6c-8,0-14.4-7.9-14.4-17.7c0-0.3,0-0.6,0-0.9h8.3c0,0.2-0.1,0.4-0.1,0.6c0,3,2.4,5.4,5.4,5.4
		c3,0,5.4-2.4,5.4-5.4c0-0.2,0-0.4-0.1-0.6h3.5h6.4h6.5c-0.3,0.7-0.5,1.4-0.5,2.3c0,3,2.4,5.4,5.4,5.4c3,0,5.4-2.4,5.4-5.4
		c0-0.8-0.2-1.6-0.5-2.3h10.7c0.1,0.7,0.1,1.4,0.1,2.2C195.4,188.5,187.9,197.8,178.7,197.8z"/>
	<path d="M153.1,181c3,0,5.4-2.4,5.4-5.4c0-0.2,0-0.4-0.1-0.6h-10.6c0,0.2-0.1,0.4-0.1,0.6C147.8,178.6,150.2,181,153.1,181z"/>
	<path d="M179.8,182.6c3,0,5.4-2.4,5.4-5.4c0-0.8-0.2-1.6-0.5-2.3h-9.7c-0.3,0.7-0.5,1.4-0.5,2.3
		C174.4,180.2,176.8,182.6,179.8,182.6z"/>
	<path class="st1" d="M256.4,147.1c-7.9-1.7-12.5,12.1-14.9,19.1l24,3.2c-0.4-4.6-0.8-9.3-2-13.7C262.6,152,260.5,147.9,256.4,147.1
		z"/>
	<path class="st1" d="M229.5,166.9c-1.9-3.4-3.8-6.7-5.8-10.1c-1.4-2.4-2.6-5.4-4.6-7.4c-2.6-2.6-6.2-2.8-8.4,0.3
		c-3,4.2-2.9,12.1-3.6,16.9c-0.1,1-0.6,2.9-1,5C206.1,171.7,229.7,166.9,229.5,166.9z"/>
	<path class="st1" d="M333,190.3c-2.9,0.5-3.5,3.9-4.2,6.3c-0.8,2.8-1.4,5.6-1.8,8.5l17.9-2.8c-1.8-2.6-3.6-5.2-5.5-7.8
		C337.8,192.4,335.9,189.8,333,190.3z"/>
	<path class="st1" d="M353.5,180.6c-1.8,1.5-1.9,4.1-1.9,6.2c0.1,3.4,0.5,6.7,0.5,10.1l11.8-14.3
		C360.6,180.6,356.3,178.2,353.5,180.6z"/>
	<path class="st1" d="M314.7,186.3c-4.5-2.2-8.3,3.2-10.7,7.8l16.1,10C320.2,197.7,319.9,188.9,314.7,186.3z"/>
	<path class="st1" d="M293.2,165.5c-5.1-3.9-12.4,3.3-17,8.2l18.4,12.2c0.7-4.1,1.2-8.3,1.2-12.5
		C295.7,170.6,295.6,167.3,293.2,165.5z"/>
	<path class="st2" d="M173.5,268c0,0-20.8-0.2-31.4-6.8c21.8,0.4,33.4-4.5,33.4-4.5S177.8,262.3,173.5,268z"/>
	<path class="st3" d="M216.2,270.8c-0.6-0.1-1-0.1-1-0.1C215.5,270.7,215.9,270.8,216.2,270.8z"/>
	<path class="st2" d="M252.6,266.1c3.2-3.3,1.1-7.5,0.4-8.2c-2.1,1.2-17.9,2.8-29.1-1.1c-11.2-3.9-12.8-1.2-12.8-1.2s-0.5-1.6,0.5,2
		c0.9,3.6-0.8,7.1,0.3,8.2c1.1,1.1,3.3,4.9,3.3,5c0,0,0.3,0,1,0.1c1.3,0.2,2.6,0.3,3.8,0.5c0.9,0.1,1.5,0.3,2.1,0.4
		c8.3,1.5,16.4,3.6,24.9,2.3c0,0.1,0,0.1,0,0.2c0,0,0.1,0,0.2,0C247.1,271.8,249.4,269.4,252.6,266.1z"/>
	<path class="st2" d="M332,260.8c8.3-2.3,16.6-5.4,23.3-10.8c6.9-5.5,11.2-13.3,13.5-21.8c1.3-4.9,1.9-10,2.1-15.1
		c0.1-1.9,0.6-16.8,0.3-19.7c-1.6,4.4-8.6,14.8-10.1,17.8c-1.6,3.3-3.7,17.2-7.7,25.1c-4,7.9-14.6,10.8-24.5,11.4
		c-20.9,0-20.5-0.3-25.9,0.6c-1.9,7-4.5,10.1-7.3,13.1c1.4,0.1,4.3,4.2,5.1,5.3c4.4-2.2,10.6-1.5,15.4-2.3
		C321.5,263.5,326.8,262.2,332,260.8z"/>
	<ellipse class="st2" cx="220.7" cy="181.3" rx="5.2" ry="2.5"/>
	<ellipse class="st2" cx="243.9" cy="175.8" rx="5.2" ry="2.5"/>
	<ellipse class="st2" cx="275.1" cy="190.8" rx="5.2" ry="2.5"/>
	<ellipse class="st2" cx="255.4" cy="187.2" rx="3.5" ry="1.7"/>
	<ellipse class="st2" cx="268.4" cy="180.5" rx="3.5" ry="1.7"/>
	<ellipse class="st2" cx="322.2" cy="209.9" rx="3.5" ry="1.7"/>
	<ellipse class="st2" cx="297" cy="205" rx="5.2" ry="2.5"/>
	<ellipse class="st2" cx="298" cy="215.5" rx="2.2" ry="1.1"/>
	<ellipse class="st2" cx="308.5" cy="211.6" rx="2.2" ry="1.1"/>
	<ellipse class="st2" cx="334.9" cy="212.7" rx="2.2" ry="1.1"/>
	<ellipse class="st2" cx="288.2" cy="196.7" rx="2.2" ry="1.1"/>
	<ellipse class="st2" cx="239.2" cy="187.8" rx="2.2" ry="1.1"/>
	<ellipse class="st2" cx="229.5" cy="173.3" rx="2.2" ry="1.1"/>
</g>
</svg>
