<?xml version="1.0" encoding="utf-8"?>
<!-- Generator: Adobe Illustrator 23.0.3, SVG Export Plug-In . SVG Version: 6.00 Build 0)  -->
<svg version="1.1" id="Layer_1" xmlns="http://www.w3.org/2000/svg" xmlns:xlink="http://www.w3.org/1999/xlink" x="0px" y="0px"
	 viewBox="0 0 595.28 595.28" style="enable-background:new 0 0 595.28 595.28;" xml:space="preserve">
<style type="text/css">
	.st0{fill:#CF8B4C;}
	.st1{fill:#99637D;}
	.st2{fill:#B4624A;}
	.st3{fill:#B5AE64;}
	.st4{fill:#5D899D;}
	.st5{fill:#DA1C5C;}
	.st6{fill:#F7941D;}
	.st7{fill:#BE1E2D;}
	.st8{fill:#662D91;}
	.st9{fill:#1B75BC;}
	.st10{fill:#A77D52;}
	.st11{fill:#603A17;}
	.st12{fill:#544842;}
	.st13{fill:#676767;}
	.st14{fill:#754D25;}
	.st15{fill:#FBB03B;}
	.st16{fill:#3DB54A;}
	.st17{fill:#2AAAE2;}
	.st18{fill:#932A8E;}
	.st19{fill:#126554;}
	.st20{fill:#2C4D5F;}
	.st21{fill:#CE862A;}
	.st22{fill:#C83B27;}
	.st23{fill:#826D53;}
	.st24{fill:#E177AF;}
	.st25{fill:#2B97D4;}
	.st26{fill:#B28147;}
	.st27{fill:#EE8554;}
	.st28{fill:#FCD611;}
	.st29{fill:#EE292A;}
	.st30{fill:#73A643;}
	.st31{fill:#D4562A;}
	.st32{fill:#00A0D5;}
	.st33{fill:#A04D48;}
	.st34{fill:#A03E39;}
	.st35{fill:#6B9672;}
	.st36{fill:#F15B27;}
	.st37{fill:#6EC2E6;}
	.st38{fill:#0B7BA8;}
	.st39{fill:#1696CD;}
	.st40{fill:#1CB5D0;}
	.st41{fill:#004F70;}
</style>
<path class="st17" d="M543.97,122.36c-11.03-19.5-43.19-9.09-70.52,2.61c-2.58,1.01-5.1,2.24-7.54,3.68
	c-24.89,14-62.43,51.71-83.63,74.09c-17.38,18.35-58.25,65.02-73.45,95.49c-1.09-2.77-3.18-5-5.82-6.33
	c7.43-39.03,28.28-62.32,28.51-62.57c1.36-1.49,1.25-3.8-0.24-5.16c-1.49-1.36-3.8-1.26-5.16,0.23
	c-0.93,1.02-19.65,21.84-28.5,57.79c-8.84-35.95-27.57-56.77-28.5-57.79c-1.36-1.49-3.67-1.59-5.16-0.23
	c-1.49,1.36-1.59,3.67-0.24,5.16c0.23,0.25,21.08,23.54,28.51,62.57c-2.64,1.33-4.73,3.56-5.82,6.33
	c-15.2-30.47-56.08-77.14-73.45-95.49c-21.22-22.41-58.83-60.17-83.71-74.14c-0.1-0.06-0.2-0.11-0.3-0.17
	c-1.2-0.67-2.38-1.29-3.51-1.84c-0.57-0.28-1.14-0.54-1.72-0.8c-0.12-0.05-0.24-0.11-0.35-0.16c-27.66-11.96-60.84-23.15-72.08-3.28
	c-7.99,14.11,2.55,29.83,11.85,43.7c2.2,3.29,4.28,6.39,6.01,9.31c3.36,5.69,5.25,24.03,7.26,43.45
	c2.86,27.69,6.11,58.91,14.98,75.96c1.85,4.07,4.26,7.8,7.16,10.99c28.8,31.65,68.2,36.46,74.59,37.04c1.5,0.82,3.04,1.54,4.63,2.11
	c-6.38,3.08-11.99,6.77-15.95,10.23c-14.88,13.02-21.93,36.24-17.96,59.15c4.35,25.05,20.29,44.88,43.82,54.68
	c1.38,2.95,3.26,5.65,5.65,7.88c2.93,2.74,6.52,4.79,10.36,5.94c2.28,0.68,4.61,1.01,6.89,1.01c3.47,0,6.84-0.77,9.77-2.29
	c3.87-2.01,6.86-5.38,8.46-9.22c4.56,2.03,9.11,3.06,13.55,3.06c4.83,0,9.54-1.21,14.01-3.62c19.4-10.49,29.93-40.8,31.22-58.8
	c2.44,23.65,6.03,38.31,10.03,38.31c4,0,7.59-14.66,10.03-38.31c1.29,18,11.82,48.31,31.22,58.8c4.47,2.42,9.18,3.62,14.01,3.62
	c4.44,0,8.98-1.03,13.55-3.06c1.6,3.84,4.59,7.21,8.46,9.22c2.93,1.52,6.3,2.29,9.77,2.29c2.29,0,4.62-0.34,6.89-1.01
	c3.85-1.14,7.43-3.2,10.37-5.94c2.38-2.23,4.26-4.92,5.65-7.87c23.53-9.8,39.47-29.63,43.82-54.68
	c3.97-22.91-3.08-46.12-17.96-59.15c-3.96-3.46-9.57-7.15-15.95-10.23c1.59-0.57,3.13-1.28,4.63-2.11
	c6.38-0.58,45.78-5.38,74.59-37.04c2.9-3.19,5.31-6.92,7.16-10.99c8.88-17.04,12.12-48.27,14.98-75.96
	c2.01-19.42,3.9-37.76,7.26-43.45c1.72-2.92,3.8-6.02,6.01-9.31C541.42,152.19,551.96,136.47,543.97,122.36z M195.89,201.23
	c10.48,1.86,18.84,12.57,17.54,22.47c-1.04,7.92-8.33,14.46-15.5,14c-3.45-0.22-6.84-2.42-8.97-5.75c2.76-0.12,5.42-1.57,6.93-4.12
	c1.16-1.95,1.48-4.23,0.93-6.42s-1.94-4.04-3.88-5.19c-1.95-1.16-4.22-1.49-6.42-0.93c-2.02,0.51-3.71,1.75-4.88,3.45
	c-0.08,0.09-0.15,0.19-0.21,0.29c-0.03,0.05-0.08,0.09-0.11,0.14c-0.04,0.06-0.05,0.13-0.09,0.19c-0.03,0.05-0.07,0.1-0.09,0.16
	c-0.03,0.07-0.05,0.13-0.08,0.2c-0.26,0.52-0.47,1.06-0.61,1.61c-0.09,0.3-0.15,0.61-0.23,0.92c0,0.01-0.01,0.02-0.01,0.03
	c-1.03,4.23-0.27,8.86,2.25,13.08c3.32,5.56,9.08,9.24,15.01,9.62c8.04,0.48,15.83-4.31,20.08-11.46c0.04,0.18,0.06,0.37,0.11,0.55
	c1.35,5.43,4.64,9.86,8.94,12.76c-1.4-7.66,1.9-11.13,1.97-15.93c16.38,18.96,33.74,40.93,44.81,58.81
	c-4.18-1.92-8.66-2.87-13.06-2.78c-0.11-0.01-0.22-0.03-0.33-0.03c-9.64-0.02-19.32-0.81-28.86-2.27c0.74-4.37,1.31-11.76-2-16.7
	c-5.16-7.7-13.51-6.49-21.03-17.62c-1.59,7.68-0.45,15.95,3.83,23.24c2.09,3.56,4.74,6.57,7.78,9c-11.37-2.5-20.49-5.83-28.36-10.36
	c-10.86-6.24-19.2-15.04-23.49-24.78c-4.76-10.81-4.47-23.24,0.76-32.43C174.2,205.21,185.66,199.42,195.89,201.23z M194.07,193.68
	c-12.3-0.8-25.29,6.29-31.8,17.72c-4.16,7.32-5.76,16.26-4.78,25.19c-3.29-2.45-6.98-4.43-10.96-5.77
	c-3.81-1.28-7.83-1.96-11.9-2.08c8.66-7.44,15.39-16.96,19.28-27.5c2.87-0.4,6.61-1.39,8.81-3.84c4.09-4.57,1.94-9.72,7.84-16.35
	c-4.73,0.22-9.39,2-13.2,5.3c1.13-11.08-0.79-22.27-5.34-32.18C166.67,166.52,182.08,181.51,194.07,193.68z M67.61,144.04
	c-1.62,3.55-2.57,7.3-2.91,11.08c-6.49-10.21-11.73-20.86-7.03-29.16c4.72-8.34,16.71-9.45,37.06-3.29
	C82.77,125.45,72.47,133.43,67.61,144.04z M89.35,262.22c-2.55-14.13-4.2-30.05-5.66-44.15c-1.3-12.61-2.45-23.69-3.98-32.19
	c11.08,6.22,26.19,4.68,34.73-4.31c0.31-0.33,0.6-0.67,0.89-1.01c2.76,0.95,6.63,1.79,9.76,0.56c5.7-2.25,6.09-7.82,14.33-11.11
	c-4.74-2.1-10.24-2.53-15.55-0.79c-1.23,0.4-2.38,0.91-3.48,1.5c1.2-4.91,0.76-10.03-1.51-14.35c-2.32-4.43-6.79-7.78-11.97-8.93
	c-4.06-0.91-8.12-0.34-11.4,1.56c-0.35,0.19-0.68,0.42-1.01,0.67c-0.13,0.09-0.27,0.17-0.4,0.26c-0.04,0.03-0.07,0.07-0.11,0.1
	c-0.04,0.03-0.08,0.05-0.11,0.08l0,0c-0.06,0.05-0.09,0.11-0.15,0.16c-0.09,0.09-0.18,0.18-0.26,0.28
	c-3.07,3.15-3.26,8.18-0.29,11.52c1.67,1.88,4,2.84,6.34,2.84c2,0,4.02-0.7,5.63-2.14c2.12-1.88,3.05-4.6,2.77-7.23
	c1.93,0.98,3.56,2.45,4.49,4.21c2.61,4.99,1.24,12.05-3.26,16.78c-7.06,7.43-20.92,7.78-29.07,0.72
	c-8.02-6.94-10.53-19.91-5.83-30.17c4.54-9.9,15.05-16.99,26.77-18.06c6.69-0.62,13.75,0.74,20.31,3.72
	c0.23,0.1,0.46,0.21,0.69,0.32c3.86,1.84,7.55,4.23,10.84,7.13c13.77,12.13,20.33,32.72,16.34,51.22
	c-3.52,16.31-14.71,30.78-29.77,39c1.94-2.82,3.49-5.96,4.5-9.42c2.36-8.12,1.44-16.42-1.98-23.47
	c-4.56,12.63-12.96,13.49-16.08,22.23c-2,5.62,0.37,12.65,2.16,16.7c-0.15,0.1-0.3,0.19-0.45,0.29
	C98.79,242.83,92.42,252.04,89.35,262.22z M103.97,300.85c-1.99-2.18-3.68-4.69-5.09-7.41c-0.08-0.23-0.18-0.46-0.3-0.69
	c-0.21-0.37-0.4-0.79-0.6-1.17c-1.43-3.19-2.45-6.63-2.98-10.19c-0.86-5.81-0.31-11.74,1.41-17.33c2.91,0.42,6.98,0.54,9.87-1.32
	c5.16-3.32,4.45-8.85,11.9-13.69c-4.98-1.12-10.36-0.5-15.18,2.13c2.46-3.24,5.39-6.11,8.75-8.44c9.56-6.62,21.99-8.54,32.46-5.02
	c10.77,3.63,19.27,13.26,21.16,23.96c1.94,10.98-3.35,22.92-12.58,28.39c-6.49,3.84-14.55,4.31-20.53,1.18
	c-6.2-3.23-9.9-10.67-8.41-16.93c0.69-2.9,2.7-5.61,5.43-7.4c0.08,0.9,0.26,1.79,0.63,2.64c0.89,2.08,2.54,3.69,4.64,4.52
	c1.02,0.4,2.08,0.61,3.14,0.61c1.13,0,2.27-0.23,3.34-0.69c2.08-0.89,3.69-2.54,4.53-4.65c1.65-4.15-0.24-8.82-4.2-10.73
	c-0.12-0.07-0.24-0.13-0.36-0.19c-0.06-0.02-0.11-0.06-0.17-0.09c-0.05-0.02-0.1-0.02-0.14-0.04c-0.05-0.02-0.1-0.05-0.16-0.07
	c-0.13-0.04-0.27-0.06-0.4-0.1c-0.39-0.12-0.79-0.23-1.19-0.29c-4.17-0.82-8.6-0.03-12.64,2.3c-4.86,2.8-8.34,7.35-9.56,12.49
	c-2.21,9.31,2.76,19.83,11.57,24.76c-4.46,2.16-7.9,5.68-9.98,9.86c8.45-2.73,12.3,1.31,18.13-0.59c3-0.98,5.33-3.8,6.87-6.21
	c4.32-0.33,8.65-1.6,12.56-3.79c-0.88,3.82-1.36,7.61-1.39,11.35c-0.08,9.51,2.85,18.65,8.07,25.56
	C148.07,330.36,123.2,321.98,103.97,300.85z M169.77,330.94c-5.14-5.77-8.05-14.09-7.98-22.83c0.06-7.77,2.31-15.88,6.65-24.13
	c2.83-5.03,4.44-10.77,4.6-16.64c4.23,4.23,9.14,8.05,14.67,11.22c1.44,0.82,2.92,1.6,4.43,2.35c-1.3,0.25-2.59,0.62-3.87,1.12
	c-5.2,2.05-9.17,5.89-11.47,10.53c8.45-2.73,12.3,1.31,18.13-0.59c3.25-1.07,5.73-4.29,7.24-6.81c6.39,2.3,13.48,4.18,21.6,5.69
	c6.59,1.23,13.27,2.09,19.98,2.65c-6.14,5.86-9.01,14.81-6.55,22.65c1.71,5.45,6.17,10,11.93,12.19c4.78,1.82,9.76,1.71,13.94-0.23
	c0.45-0.19,0.89-0.41,1.32-0.68c0.05-0.03,0.11-0.05,0.16-0.08c0.03-0.02,0.06-0.05,0.1-0.07c0.05-0.04,0.11-0.06,0.16-0.1
	c0.06-0.04,0.1-0.1,0.16-0.14c0.1-0.08,0.2-0.16,0.29-0.25c3.39-2.82,4.1-7.8,1.49-11.43c-1.32-1.84-3.28-3.05-5.51-3.42
	c-2.23-0.37-4.48,0.16-6.31,1.48c-1.84,1.32-3.05,3.28-3.42,5.51c-0.14,0.83-0.11,1.66,0,2.48c-3.51-1.41-6.31-4.24-7.31-7.45
	c-2.09-6.67,2-14.97,8.94-18.13c6.67-3.03,15.51-1.66,22,3.4c7.96,6.21,11.99,17.67,9.79,27.85c-2.17,10.08-10.08,18.89-20.15,22.43
	c-9.79,3.45-21.48,1.93-30.5-3.98c-0.2-0.13-0.41-0.24-0.62-0.32c-7.28-4.45-16.16-6.97-25.74-7.25c3.11-3.4,5.3-7.55,6.09-12
	c0.07-0.4,0.1-0.8,0.15-1.19c2.86-0.62,6.64-1.93,8.67-4.63c3.69-4.9,1.11-9.85,6.42-16.96c-5.14,0.68-10.05,3.19-13.67,7.45
	c-1.02,1.2-1.87,2.48-2.59,3.82c-0.81-2.15-1.97-4.14-3.45-5.84c-4.41-5.07-11.48-7.26-17.59-5.44c-6.55,1.95-11.11,8.48-10.6,15.02
	c0,0.08-0.02,0.15-0.01,0.23v0c0,0.04,0.01,0.08,0.02,0.11c0,0.04,0,0.07,0,0.11c0.01,0.08,0.03,0.15,0.05,0.22
	c0.45,4.29,4.07,7.59,8.39,7.59c0.15,0,0.3,0,0.44-0.01c4.67-0.24,8.27-4.23,8.02-8.9c-0.17-3.2-2.09-5.84-4.79-7.14
	c0.19-0.07,0.37-0.17,0.56-0.23c3.37-1,7.47,0.33,9.99,3.23c2.46,2.83,3.53,7.15,2.8,11.29c-1.29,7.25-7.9,13.36-15.74,14.54
	C183.61,340.34,175.26,337.09,169.77,330.94z M187.6,444.67c-2.21,4.73-2.99,9.98-2.47,15.05c-18.21-9.46-30.49-26.11-34.06-46.68
	c-3.55-20.45,2.56-41.02,15.57-52.4c1.38-1.2,2.97-2.42,4.72-3.62c2.08,1.97,5.07,4.18,8.26,4.39c6.12,0.41,8.85-4.46,17.71-3.9
	c-3.33-3.87-8.03-6.58-13.46-7.33c5.84-2.51,12.14-4.34,18.05-4.79c13.06-0.97,25,2.63,32.99,9.87c-3.63,2.57-9.18,7.33-10.35,13.11
	c-1.84,9.09,4.91,14.16,2.31,27.33c6.57-4.28,11.64-10.91,13.8-19.09c1.2-4.54,1.36-9.11,0.68-13.47
	c3.37,5.59,5.57,12.35,6.32,19.81c1.38,13.81-2.69,26.74-10.88,34.59c-4.7,4.51-11.04,7.41-17.84,8.51
	c-0.65-2.86-1.99-6.69-4.74-8.71c-4.93-3.64-9.86-1.01-17.03-6.24c0.73,5.13,3.29,10.02,7.59,13.6c0.6,0.5,1.23,0.96,1.87,1.39
	c-2.63-0.41-5.22-1.1-7.73-2.07c-9.87-3.84-17.37-11.63-19.55-20.32c-2.36-9.4,2.2-19.84,10.16-23.28
	c4.02-1.74,9.17-1.29,13.43,1.18c0.76,0.44,1.45,0.94,2.1,1.47c-3.47,1.45-5.69,5.08-5.15,8.97c0.59,4.23,4.23,7.3,8.39,7.3
	c0.39,0,0.78-0.03,1.18-0.08c4.48-0.63,7.62-4.67,7.23-9.13c0-0.12,0.01-0.23-0.01-0.35c0-0.02-0.01-0.04-0.01-0.06
	c0-0.01,0-0.02,0-0.03c0-0.02-0.01-0.04-0.02-0.06c-0.73-5.85-4.38-11.07-10.06-14.35c-6.23-3.6-13.89-4.19-19.99-1.56
	c-9.32,4.03-15.23,14.24-15.19,24.96c-3.77-3.21-8.37-4.94-13.03-5.16c5.89,6.64,3.75,11.79,7.84,16.35
	c2.37,2.65,6.55,3.59,9.49,3.93c4.34,7.4,11.66,13.58,20.53,17.04c0.92,0.36,1.86,0.68,2.8,0.98
	C194.11,434.98,190.06,439.41,187.6,444.67z M252.91,465.29c-7.09,3.83-14.78,3.6-22.88-0.58c-0.57-5.61-4.23-10.66-9.37-12.55
	c-6.24-2.29-13.45,0.63-16.23,6.38c-0.12,0.22-0.26,0.43-0.36,0.66c0,0,0,0.01,0,0.01c0,0.01-0.01,0.01-0.01,0.02
	c-0.05,0.13-0.07,0.26-0.11,0.38c-1.27,3.67,0.51,7.76,4.15,9.26c0.91,0.38,1.87,0.56,2.83,0.56c0.96,0,1.93-0.19,2.85-0.57
	c1.83-0.76,3.25-2.19,4.01-4.02c0.82-2,0.68-4.14-0.17-5.96c0.17,0.04,0.35,0.07,0.52,0.13c2.82,1.03,4.86,4.41,4.65,7.69
	c-0.22,3.33-2.49,6.59-5.78,8.31c-3.19,1.66-7.28,1.93-11.21,0.76c-2.77-0.82-5.35-2.3-7.46-4.27c-6.03-5.64-7.8-15.84-4.11-23.74
	c3.56-7.62,11.93-13.19,20.87-13.91c7.42-0.37,14.6-2.54,20.68-6.36c-1.07,2.98-1.69,6.18-1.73,9.52
	c-0.08,7.52,2.69,14.4,7.31,19.62c0.89-11.9,7.87-14.65,8.45-22.87c0.36-5.11-3.1-10.38-5.59-13.48c2.16-2.49,4.02-5.28,5.57-8.33
	c2.59,5.7,6.93,10.37,12.49,12.83c2.8,1.24,5.73,1.86,8.6,1.86c2.53,0,5-0.49,7.25-1.46c0.02-0.01,0.04-0.02,0.07-0.03
	C274.28,440.71,265.48,458.5,252.91,465.29z M282.46,400.72c-1.13-0.87-2.38-1.54-3.75-1.97c-0.45-0.18-0.93-0.32-1.42-0.41
	c-1.95-0.34-3.92,0.08-5.54,1.21c-1.63,1.13-2.72,2.82-3.07,4.77c-0.35,1.95,0.08,3.92,1.21,5.55c1.13,1.63,2.83,2.72,4.77,3.07
	c0.44,0.08,0.89,0.12,1.32,0.12c1.62,0,3.15-0.56,4.4-1.49c-0.14,2.83-2.25,5.67-5.17,6.93c-2.9,1.25-6.63,1.11-9.99-0.38
	c-7.4-3.28-11.94-12.69-10.56-21.9c0.01-0.06,0-0.11,0.01-0.17c0.62-4.45,0.73-9.1,0.25-13.83c-0.91-9.12-3.77-17.42-8.18-24.19
	c2.33,0.39,4.68,0.6,7.03,0.61c0.84,2.81,2.42,6.52,5.29,8.35c5.16,3.3,9.9,0.36,17.4,5.11c-1.07-5.07-3.94-9.78-8.47-13.07
	c-1.02-0.74-2.08-1.36-3.17-1.9c0.78-0.22,1.57-0.44,2.34-0.71c6.74-2.38,12.69-6.69,17.16-12.14c0.11,17.74,0.68,34.24,1.62,48.7
	C284.86,394.88,283.55,397.49,282.46,400.72z M443.26,154.15c-4.55,9.92-6.47,21.11-5.34,32.18c-3.8-3.3-8.46-5.08-13.2-5.3
	c5.89,6.64,3.75,11.79,7.84,16.35c2.2,2.45,5.93,3.44,8.81,3.84c3.89,10.54,10.61,20.06,19.28,27.5c-4.07,0.12-8.09,0.8-11.9,2.08
	c-3.98,1.34-7.67,3.32-10.96,5.77c0.98-8.92-0.62-17.87-4.78-25.19c-6.5-11.43-19.48-18.53-31.79-17.72
	C413.2,181.51,428.6,166.52,443.26,154.15z M366.71,230.92c0.08,4.8,3.37,8.27,1.97,15.93c4.3-2.89,7.58-7.33,8.94-12.76
	c0.05-0.18,0.07-0.36,0.11-0.55c4.24,7.14,12.01,11.92,20.08,11.45c5.93-0.38,11.68-4.07,15.01-9.62c2.52-4.22,3.28-8.84,2.25-13.08
	c0-0.01,0-0.02-0.01-0.03c-0.08-0.31-0.13-0.62-0.23-0.93c-0.15-0.55-0.35-1.09-0.61-1.61c-0.03-0.07-0.05-0.13-0.08-0.2
	c-0.03-0.06-0.06-0.1-0.09-0.16c-0.03-0.06-0.05-0.13-0.09-0.19c-0.03-0.05-0.08-0.09-0.11-0.15c-0.07-0.1-0.14-0.19-0.21-0.28
	c-1.16-1.71-2.86-2.94-4.88-3.45c-2.2-0.56-4.48-0.23-6.42,0.93c-1.95,1.16-3.33,3-3.89,5.19s-0.23,4.47,0.93,6.42
	c1.16,1.95,3,3.33,5.19,3.89c0.58,0.15,1.17,0.2,1.75,0.22c-2.13,3.34-5.53,5.54-8.98,5.76c-7.23,0.43-14.46-6.08-15.5-14
	c-1.3-9.9,7.06-20.62,17.54-22.47c10.23-1.8,21.69,3.98,27.26,13.78c5.23,9.19,5.52,21.62,0.76,32.43
	c-4.29,9.74-12.63,18.55-23.49,24.78c-7.87,4.52-16.99,7.86-28.36,10.36c3.04-2.43,5.7-5.44,7.78-9c4.28-7.3,5.42-15.57,3.83-23.24
	c-7.51,11.13-15.87,9.91-21.03,17.62c-3.31,4.95-2.74,12.33-2,16.7c-9.54,1.46-19.22,2.25-28.86,2.27c-0.11,0-0.22,0.02-0.33,0.03
	c-4.4-0.09-8.87,0.85-13.06,2.78C332.98,271.85,350.34,249.88,366.71,230.92z M319.29,413.05c0.44,0,0.88-0.04,1.32-0.12
	c4.02-0.73,6.7-4.59,5.98-8.61c-0.35-1.95-1.44-3.64-3.07-4.77c-1.62-1.13-3.59-1.54-5.54-1.21c-0.49,0.09-0.97,0.23-1.42,0.41
	c-1.36,0.43-2.62,1.1-3.75,1.97c-1.08-3.22-2.4-5.84-3.5-7.73c0.93-14.47,1.51-30.96,1.62-48.71c4.47,5.45,10.42,9.76,17.16,12.14
	c0.77,0.27,1.55,0.49,2.34,0.71c-1.09,0.54-2.15,1.16-3.17,1.9c-4.52,3.29-7.4,8-8.47,13.07c7.5-4.75,12.24-1.81,17.4-5.11
	c2.86-1.83,4.45-5.54,5.29-8.35c2.35,0,4.7-0.22,7.03-0.61c-4.41,6.78-7.26,15.07-8.18,24.19c-0.47,4.72-0.36,9.37,0.25,13.82
	c0.01,0.06,0,0.12,0.01,0.17c1.38,9.21-3.15,18.62-10.56,21.9c-3.36,1.49-7.09,1.63-9.99,0.37c-2.92-1.26-5.03-4.1-5.17-6.93
	C316.14,412.49,317.67,413.05,319.29,413.05z M396.94,471.5c-2.11,1.97-4.69,3.45-7.46,4.28c-3.94,1.17-8.02,0.9-11.21-0.76
	c-3.29-1.71-5.56-4.97-5.78-8.31c-0.21-3.28,1.83-6.65,4.65-7.69c0.17-0.06,0.35-0.09,0.52-0.13c-0.85,1.82-0.99,3.97-0.17,5.97
	c1.18,2.85,3.95,4.58,6.86,4.58c0.94,0,1.9-0.18,2.82-0.56c3.64-1.5,5.42-5.58,4.15-9.25c-0.04-0.13-0.06-0.26-0.11-0.39
	c0-0.01-0.01-0.01-0.01-0.02c0,0,0-0.01,0-0.01c-0.1-0.25-0.25-0.47-0.38-0.7c-2.79-5.72-9.97-8.63-16.21-6.34
	c-5.14,1.89-8.81,6.94-9.37,12.55c-8.1,4.18-15.79,4.41-22.88,0.58c-12.57-6.79-21.37-24.58-25.27-40.12
	c0.02,0.01,0.04,0.02,0.07,0.03c2.25,0.98,4.72,1.46,7.25,1.46c2.86,0,5.8-0.62,8.6-1.86c5.55-2.46,9.89-7.13,12.49-12.83
	c1.55,3.04,3.42,5.84,5.57,8.33c-2.49,3.09-5.95,8.36-5.59,13.48c0.58,8.22,7.56,10.97,8.45,22.87c4.61-5.22,7.39-12.11,7.31-19.62
	c-0.04-3.35-0.66-6.54-1.73-9.52c6.09,3.82,13.28,6,20.72,6.36c8.93,0.73,17.29,6.3,20.84,13.91
	C404.74,455.66,402.97,465.87,396.94,471.5z M444.2,413.04c-3.57,20.57-15.84,37.22-34.06,46.68c0.52-5.07-0.26-10.32-2.47-15.05
	c-2.46-5.26-6.51-9.69-11.46-12.87c0.94-0.3,1.87-0.62,2.79-0.98c8.88-3.45,16.19-9.64,20.53-17.04c2.94-0.33,7.11-1.28,9.49-3.93
	c4.09-4.56,1.94-9.72,7.84-16.35c-4.66,0.22-9.26,1.94-13.03,5.15c0.04-10.71-5.86-20.92-15.18-24.95
	c-6.1-2.64-13.76-2.04-19.99,1.56c-5.68,3.28-9.33,8.5-10.06,14.35c0,0.02-0.01,0.04-0.02,0.07c0,0.01,0,0.02,0,0.03
	c0,0.02-0.01,0.04-0.01,0.06c-0.01,0.1,0,0.19,0,0.29c-0.2,2.11,0.36,4.19,1.64,5.9c1.36,1.81,3.35,2.97,5.59,3.29
	c0.4,0.05,0.79,0.08,1.18,0.08c4.15,0,7.79-3.07,8.39-7.3c0.55-3.89-1.68-7.52-5.15-8.97c0.64-0.53,1.33-1.03,2.1-1.47
	c4.27-2.47,9.41-2.91,13.43-1.18c7.96,3.45,12.52,13.89,10.16,23.28c-2.19,8.69-9.68,16.48-19.55,20.32
	c-2.5,0.97-5.1,1.66-7.72,2.07c0.64-0.43,1.27-0.88,1.87-1.39c4.3-3.58,6.86-8.47,7.59-13.6c-7.17,5.24-12.09,2.61-17.03,6.24
	c-2.75,2.03-4.09,5.85-4.74,8.71c-6.8-1.1-13.13-4-17.84-8.51c-8.19-7.86-12.26-20.79-10.88-34.59c0.74-7.45,2.95-14.21,6.31-19.8
	c-0.68,4.36-0.53,8.92,0.68,13.47c2.17,8.18,7.23,14.81,13.8,19.09c-2.6-13.17,4.14-18.25,2.31-27.33
	c-1.17-5.78-6.72-10.54-10.35-13.11c8-7.24,19.96-10.85,32.99-9.87c5.91,0.45,12.21,2.28,18.05,4.79
	c-5.44,0.76-10.14,3.46-13.46,7.33c8.86-0.56,11.6,4.31,17.71,3.9c3.19-0.21,6.18-2.42,8.26-4.39c1.75,1.2,3.34,2.42,4.72,3.62
	C441.63,372.03,447.74,392.59,444.2,413.04z M404.23,339.23c-7.83-1.18-14.45-7.29-15.74-14.54c-0.74-4.13,0.34-8.46,2.8-11.28
	c2.52-2.9,6.63-4.23,9.99-3.23c0.19,0.06,0.37,0.15,0.56,0.22c-0.71,0.34-1.39,0.75-1.99,1.3c-1.68,1.52-2.67,3.59-2.79,5.85
	c-0.24,4.67,3.36,8.66,8.02,8.9c0.15,0.01,0.3,0.01,0.44,0.01c4.32,0,7.93-3.29,8.39-7.59c0.01-0.08,0.04-0.15,0.05-0.22
	c0-0.04,0-0.07,0-0.11c0-0.04,0.02-0.08,0.02-0.11v0c0-0.08-0.01-0.16-0.01-0.23c0.51-6.54-4.05-13.07-10.61-15.02
	c-6.11-1.8-13.18,0.37-17.59,5.44c-1.48,1.71-2.64,3.69-3.45,5.84c-0.72-1.33-1.57-2.62-2.59-3.82c-3.62-4.26-8.54-6.77-13.67-7.45
	c5.31,7.11,2.73,12.07,6.42,16.96c2.03,2.7,5.81,4,8.67,4.63c0.05,0.4,0.08,0.79,0.15,1.19c0.79,4.46,2.98,8.61,6.09,12.01
	c-9.58,0.28-18.46,2.8-25.74,7.25c-0.21,0.09-0.42,0.19-0.62,0.32c-9.02,5.9-20.71,7.43-30.5,3.98
	c-10.06-3.54-17.97-12.35-20.15-22.43c-2.2-10.19,1.83-21.64,9.79-27.85c6.49-5.07,15.33-6.44,22-3.4
	c6.94,3.16,11.03,11.46,8.94,18.13c-1.01,3.2-3.8,6.03-7.31,7.45c0.11-0.82,0.14-1.64,0-2.48c-0.37-2.23-1.58-4.19-3.42-5.51
	c-1.84-1.32-4.08-1.85-6.31-1.48c-2.23,0.37-4.19,1.58-5.51,3.42c-1.32,1.84-1.85,4.08-1.48,6.31c0.33,2.04,1.4,3.83,2.98,5.13
	c0.08,0.08,0.17,0.16,0.26,0.23c0.06,0.05,0.11,0.11,0.17,0.15c0.05,0.04,0.11,0.06,0.16,0.1c0.03,0.02,0.06,0.05,0.09,0.07
	c0.05,0.03,0.1,0.05,0.15,0.08c0.42,0.27,0.86,0.5,1.31,0.68c4.18,1.94,9.17,2.05,13.95,0.24c5.76-2.19,10.22-6.74,11.93-12.19
	c2.46-7.83-0.41-16.79-6.55-22.65c6.7-0.56,13.39-1.42,19.98-2.65c8.12-1.51,15.21-3.39,21.6-5.69c1.51,2.52,3.99,5.75,7.24,6.81
	c5.82,1.91,9.68-2.13,18.13,0.59c-2.3-4.64-6.27-8.48-11.47-10.53c-1.27-0.5-2.57-0.87-3.87-1.12c1.51-0.75,2.99-1.53,4.43-2.35
	c5.53-3.18,10.44-6.99,14.67-11.22c0.16,5.87,1.78,11.61,4.6,16.64c4.34,8.25,6.59,16.36,6.65,24.13
	c0.07,8.74-2.83,17.06-7.98,22.83C420.02,337.09,411.65,340.34,404.23,339.23z M500.28,281.39c-0.53,3.55-1.55,6.99-2.98,10.18
	c-0.2,0.39-0.4,0.81-0.61,1.18c-0.13,0.22-0.23,0.45-0.3,0.69c-1.4,2.71-3.1,5.22-5.08,7.41c-19.23,21.13-44.1,29.51-58.58,32.76
	c5.22-6.92,8.16-16.06,8.07-25.56c-0.03-3.74-0.51-7.53-1.39-11.35c3.91,2.19,8.24,3.46,12.56,3.79c1.53,2.41,3.87,5.22,6.86,6.2
	c5.82,1.91,9.68-2.13,18.13,0.59c-2.08-4.18-5.51-7.7-9.98-9.86c8.82-4.93,13.78-15.45,11.58-24.76c-1.22-5.14-4.7-9.69-9.56-12.49
	c-4.04-2.33-8.47-3.12-12.64-2.3c-0.4,0.06-0.8,0.17-1.2,0.29c-0.13,0.04-0.26,0.06-0.39,0.09c-0.05,0.02-0.1,0.04-0.15,0.06
	c-0.05,0.02-0.1,0.02-0.15,0.04c-0.07,0.03-0.12,0.07-0.19,0.1c-0.11,0.05-0.22,0.1-0.32,0.17c-1.85,0.88-3.32,2.36-4.14,4.26
	c-0.89,2.08-0.92,4.38-0.09,6.49c0.84,2.1,2.44,3.75,4.52,4.65c1.08,0.46,2.21,0.69,3.35,0.69c1.06,0,2.12-0.2,3.14-0.61
	c2.1-0.84,3.75-2.45,4.65-4.52c0.37-0.85,0.55-1.74,0.63-2.64c2.73,1.8,4.74,4.51,5.43,7.4c1.48,6.26-2.21,13.69-8.41,16.93
	c-5.99,3.12-14.04,2.66-20.53-1.18c-9.23-5.46-14.52-17.4-12.58-28.39c1.89-10.7,10.39-20.33,21.16-23.96
	c10.46-3.52,22.9-1.6,32.46,5.01c3.36,2.33,6.29,5.2,8.75,8.44c-4.82-2.63-10.2-3.25-15.17-2.13c7.45,4.83,6.74,10.37,11.9,13.69
	c2.89,1.86,6.96,1.74,9.87,1.32C500.59,269.65,501.14,275.59,500.28,281.39z M515.2,177.26c-8.15,7.05-22.01,6.71-29.07-0.72
	c-4.5-4.74-5.87-11.8-3.26-16.78c0.92-1.76,2.55-3.24,4.49-4.22c-0.28,2.63,0.65,5.34,2.77,7.23c1.61,1.43,3.62,2.14,5.63,2.14
	c2.34,0,4.66-0.96,6.34-2.84c2.97-3.34,2.78-8.37-0.29-11.52c-0.08-0.1-0.17-0.19-0.26-0.28c-0.05-0.05-0.09-0.11-0.15-0.16l0,0
	c-0.04-0.03-0.08-0.05-0.11-0.08c-0.04-0.03-0.07-0.07-0.11-0.1c-0.13-0.1-0.27-0.18-0.4-0.27c-0.32-0.24-0.64-0.47-0.99-0.65
	c-3.28-1.91-7.35-2.49-11.42-1.57c-5.18,1.16-9.65,4.5-11.97,8.93c-2.26,4.33-2.7,9.45-1.5,14.36c-1.1-0.59-2.26-1.1-3.49-1.5
	c-5.31-1.74-10.82-1.31-15.55,0.79c8.24,3.29,8.63,8.86,14.33,11.11c3.12,1.23,6.99,0.39,9.76-0.56c0.29,0.34,0.58,0.68,0.89,1.01
	c8.54,8.99,23.65,10.53,34.73,4.31c-1.53,8.5-2.68,19.58-3.98,32.19c-1.46,14.1-3.11,30.02-5.66,44.15
	c-3.07-10.19-9.44-19.39-18.23-25.48c-0.15-0.1-0.3-0.19-0.45-0.29c1.79-4.05,4.16-11.09,2.16-16.7
	c-3.11-8.73-11.51-9.6-16.08-22.23c-3.42,7.06-4.34,15.35-1.98,23.47c1.01,3.46,2.56,6.61,4.5,9.42
	c-15.06-8.22-26.25-22.7-29.77-39.01c-4-18.5,2.57-39.09,16.34-51.22c3.31-2.91,7-5.31,10.87-7.15c0.21-0.1,0.42-0.2,0.64-0.3
	c6.57-2.99,13.64-4.36,20.33-3.73c11.72,1.07,22.23,8.16,26.77,18.06C525.73,157.34,523.22,170.32,515.2,177.26z M530.58,155.12
	c-0.34-3.78-1.28-7.53-2.91-11.08c-4.86-10.61-15.16-18.58-27.12-21.38c20.35-6.16,32.34-5.04,37.06,3.29
	C542.31,134.26,537.07,144.9,530.58,155.12z"/>
</svg>
