<?xml version="1.0" encoding="utf-8"?>
<!-- Generator: Adobe Illustrator 23.0.3, SVG Export Plug-In . SVG Version: 6.00 Build 0)  -->
<svg version="1.1" id="Layer_1" xmlns="http://www.w3.org/2000/svg" xmlns:xlink="http://www.w3.org/1999/xlink" x="0px" y="0px"
	 viewBox="0 0 595.28 595.28" style="enable-background:new 0 0 595.28 595.28;" xml:space="preserve">
<style type="text/css">
	.st0{fill:#CF8B4C;}
	.st1{fill:#99637D;}
	.st2{fill:#B4624A;}
	.st3{fill:#B5AE64;}
	.st4{fill:#5D899D;}
	.st5{fill:#DA1C5C;}
	.st6{fill:#F7941D;}
	.st7{fill:#BE1E2D;}
	.st8{fill:#662D91;}
	.st9{fill:#1B75BC;}
	.st10{fill:#A77D52;}
	.st11{fill:#603A17;}
	.st12{fill:#544842;}
	.st13{fill:#676767;}
	.st14{fill:#754D25;}
	.st15{fill:#FBB03B;}
	.st16{fill:#3DB54A;}
	.st17{fill:#2AAAE2;}
	.st18{fill:#932A8E;}
	.st19{fill:#126554;}
	.st20{fill:#2C4D5F;}
	.st21{fill:#CE862A;}
	.st22{fill:#C83B27;}
	.st23{fill:#826D53;}
	.st24{fill:#E177AF;}
	.st25{fill:#2B97D4;}
	.st26{fill:#B28147;}
	.st27{fill:#EE8554;}
	.st28{fill:#FCD611;}
	.st29{fill:#EE292A;}
	.st30{fill:#73A643;}
	.st31{fill:#D4562A;}
	.st32{fill:#00A0D5;}
	.st33{fill:#A04D48;}
	.st34{fill:#A03E39;}
	.st35{fill:#6B9672;}
	.st36{fill:#F15B27;}
	.st37{fill:#6EC2E6;}
	.st38{fill:#0B7BA8;}
	.st39{fill:#1696CD;}
	.st40{fill:#1CB5D0;}
	.st41{fill:#004F70;}
</style>
<path class="st28" d="M517.88,199.22c-0.11-0.24-0.24-0.48-0.39-0.71c-3.02-4.62-12.55-4.11-17.27-5.03
	c-14.32-2.78-17.74-5.13-24.87-11.79c-2.76-2.58-3.78-5.91-5.46-9.11c-5.48-10.39-12.76-20.27-21.27-28.6
	c-11.43-11.19-25.33-19.9-40.62-24.71c-41.11-12.91-90.61,4.68-111.84,42.17c-8.9,15.72-12.83,34.97-7.22,52.14
	c9.17,28.08,41.24,45.46,46.04,74.62c-16.13-20.92-45.33-27.59-71.62-25.07c-26.29,2.52-51.18,12.59-76.78,19.12
	c-25.59,6.53-53.79,9.29-77.56-2.23c-4.89-2.37-9.58-5.33-14.87-6.57c-5.29-1.24-11.55-0.34-14.94,3.9
	c-4.17,5.21-2.44,12.81-0.44,19.18c9.42,30.11,20.14,60.02,35.81,87.4c15.67,27.38,36.56,52.3,63.23,69.16
	c31.27,19.78,69.06,27.54,106.06,27.08c37-0.46,73.47-8.71,109.02-18.97c18.22-5.26,36.48-11.13,52.71-20.95
	c16.23-9.81,30.43-23.99,37.03-41.77c8.69-23.43,3.05-50.26-9.18-72.05c-12.22-21.8-30.4-39.55-48.32-56.96
	c15.28-3.46,23.88-11.32,31.93-17.9c10.32-1.22,20.88-0.41,30.85,2.53c3.14,0.93,7.24,1.74,9.08-0.96c1.53-2.24,0.24-5.26-1.1-7.62
	c-2.47-4.34-5.12-8.58-7.86-12.75c3.65-2.09,6.33-3.93,10.78-7.24C505.11,220.84,522.44,208.87,517.88,199.22z M117.13,321.16
	c-0.42,2.25-2.02,4.43-4.27,4.83c-2.73,0.48-5.18-1.67-6.95-3.8c-7.04-8.47-11.09-19.37-11.28-30.38c5.68-0.48,11.21,2.7,14.8,7.13
	c3.59,4.42,5.53,9.95,7,15.46C117.02,316.6,117.54,318.91,117.13,321.16z M144.89,320.35c-1.95,1.64-4.82,1.86-7.23,1.04
	c-2.41-0.83-4.4-2.57-6.05-4.52c-3.09-3.65-5.15-8.14-5.92-12.86c5.94-2.48,13.31-1.06,17.91,3.44c1.74,1.7,3.12,3.86,3.51,6.27
	C147.5,316.13,146.76,318.78,144.89,320.35z M446.11,415.62c13.41-15.21,20.74-35.63,20.36-55.89c-0.04-2.27,3.13-2.86,3.84-0.7
	c1.67,5.12,2.91,10.37,3.45,15.73c1.03,10.21-0.63,20.91-6.09,29.6c-4.44,7.05-11.6,12.57-19.62,14.49
	C446.14,419.31,444.82,417.08,446.11,415.62z M347.32,131.46c2.86-3.04,7.12-4.71,11.29-4.43c2.21,0.15,4.44,0.86,6.1,2.33
	c1.65,1.47,2.64,3.79,2.2,5.96c-0.77,3.76-5.03,5.51-8.74,6.52c-2.44,0.67-4.98,1.29-7.48,0.92c-2.5-0.37-4.99-1.95-5.69-4.38
	C344.31,135.93,345.58,133.31,347.32,131.46z M330.84,156.94c-7.14,8.74-11.11,20.02-11.02,31.3c0.02,3,0.32,6.04-0.24,8.99
	c-0.55,2.95-2.15,5.91-4.87,7.18c-3.74,1.75-8.42-0.38-10.71-3.82c-2.29-3.44-2.69-7.78-2.59-11.91
	c0.28-12.03,4.34-23.98,11.65-33.53c3.03-3.97,6.61-7.52,10.59-10.52c3.08-2.33,7.56-4.29,10.54-1.84c2.1,1.73,2.3,4.98,1.3,7.51
	C334.49,152.81,332.55,154.83,330.84,156.94z M217.8,294.3c-4.35,6.89-1.1,16.57,5.16,21.79c6.26,5.22,14.65,6.99,22.73,8.13
	c-6.81,4.7-6.65,15.66-1.38,22.04c5.27,6.38,13.92,8.93,22.17,9.64c14.92,1.28,30.22-2.5,42.82-10.58c-0.08,2.84,3.54,4.1,6.38,4.26
	c18.61,1.1,37.48-8.4,47.69-23.99c-1.47,13.19-7.2,26.17-17.19,34.92c-9.99,8.74-24.44,12.7-37.09,8.69
	c-8.95,8.98-20.22,15.92-32.64,18.44c-12.42,2.52-26.02,0.33-36.24-7.17c-10.22-7.5-16.52-20.53-14.72-33.08
	c-12.15-1.24-22.8-11.46-24.55-23.55C199.19,311.75,206.5,298.94,217.8,294.3z M165.37,336.26c-0.77,9.03,2.93,18.33,9.68,24.37
	c6.76,6.04,16.41,8.67,25.3,6.9c-4.16,9.45-0.04,21.09,7.77,27.85c7.8,6.76,18.47,9.31,28.79,9.65c-10.46,2.48-21.47,4.78-31.85,2
	c-10.39-2.78-19.79-12.33-18.64-23.02c-12.06,3.28-26.03-3.38-31.07-14.82C150.3,357.76,154.81,342.95,165.37,336.26z
	 M267.33,454.89c-19.03,3.69-39.04,2.44-57.4-3.8c-19.11-6.49-36.33-18.35-49.37-33.74c-2.17-2.56,0.97-6.18,3.79-4.35
	c30.93,20.06,66.29,33.9,102.69,36.29C270.36,449.52,270.6,454.26,267.33,454.89z M367.69,404.52c-13.07,8.3-30.42,9.41-44.44,2.83
	c-7.32,12.57-21.4,21.03-35.95,21.19c-14.55,0.16-28.97-8.15-35.8-21c23.52,6.36,50.16-0.51,67.69-17.43
	c11.87,7.39,27.25,8.49,40.35,3.59c13.1-4.89,23.81-15.48,29.61-28.2C389.15,380.99,380.77,396.22,367.69,404.52z M409.25,232.67
	c-3.2,0.83-6.56,1.27-10.02,1.27c-22.81,0-41.13-19.21-39.67-42.34c1.22-19.26,16.52-35.13,35.73-36.98
	c11.63-1.12,22.36,2.78,30.27,9.79c1.72,1.52-0.2,4.29-2.23,3.21c-4.77-2.53-10.26-3.88-16.08-3.69
	c-16.36,0.55-29.91,13.69-30.93,30.03c-1.16,18.65,13.63,34.14,32.03,34.14c0.08,0,0.16,0,0.23,0
	C411.33,228.09,411.91,231.98,409.25,232.67z M416.84,209.91c-1.84,2.41-4.88,3.65-7.89,3.96c-8.85,0.94-17.61-6-19.41-14.71
	c-1.8-8.72,3.01-18.17,10.78-22.5c5.05-2.82,11.41-3.59,16.68-1.22c5.28,2.37,9.06,8.16,8.31,13.89c-2.49-0.97-4.97-2.03-7.61-2.41
	c-2.64-0.38-5.52,0.02-7.58,1.71c-2.06,1.69-3,4.87-1.62,7.16c1.78,2.96,6.19,3.15,8.46,5.75
	C418.95,203.8,418.68,207.5,416.84,209.91z M446.49,247.21c-3.87,4.51-9.64,7.31-15.58,7.57c-1.36,0.06-2.81-0.04-3.91-0.83
	c-1.23-0.88-1.77-2.44-2.02-3.93c-0.66-3.96,0.29-8.07,2.15-11.62c1.86-3.55,4.61-6.58,7.62-9.22c2.48-2.18,5.24-4.16,8.39-5.14
	c1.36-0.43,2.84-0.66,4.2-0.22c2.71,0.88,3.94,4.03,4.26,6.86C452.25,236.56,450.36,242.7,446.49,247.21z M489.95,248.16
	c-6.15-1.78-12.3-3.55-18.45-5.33c4.9-2.79,6.5-4.85,11.41-7.65C485.91,239.11,488.3,243.5,489.95,248.16z"/>
</svg>
