<svg id="Layer_1" data-name="Layer 1" xmlns="http://www.w3.org/2000/svg" xmlns:xlink="http://www.w3.org/1999/xlink" viewBox="0 0 571.71 316.55"><defs><style>.cls-1{fill:#a7a9ac;}.cls-2{fill:#ec008c;}.cls-3{fill:none;stroke:#fbb040;stroke-miterlimit:10;stroke-width:2px;}</style><symbol id="New_Symbol_22" data-name="New Symbol 22" viewBox="0 0 61.72 33.7"><g id="_Group_" data-name="&lt;Group&gt;"><path class="cls-1" d="M44.9,14.8h-.08a.07.07,0,0,0,0,.06l.05.05c-1.65,4.34-.53,12.26,3.41,16a.06.06,0,0,1,0,0s0,0,0,0A9.16,9.16,0,0,1,43,32.36,12,12,0,0,1,40.1,32a1.82,1.82,0,0,1-1-.5l.05,0a0,0,0,0,0,0-.06h0a0,0,0,0,0-.07,0l0,0a12.94,12.94,0,0,1-.48-4.92,22.37,22.37,0,0,0-.15-4,.07.07,0,0,1,0,0l-.3,0c-1.11-.49-2.88.08-4.59.64l-1,.31a9.18,9.18,0,0,1-1.85.41A8.92,8.92,0,0,0,29,24.3c-1.8.49-4.25,1.15-11.83,0h-.05l-1-.15a3.08,3.08,0,0,0-2.65.45c-1,.89-.8,2.77-.62,4.76.07.82.14,1.67.14,2.49v0a0,0,0,0,0,0,.05h0a3.06,3.06,0,0,1-2.41.48l-.64,0a19.93,19.93,0,0,1-4.31-.89l-.52-.23s0,0,0,0a7.88,7.88,0,0,1,.78-3.51A10.2,10.2,0,0,0,6.69,25a3.37,3.37,0,0,1,.94-2.07,2.91,2.91,0,0,0,.84-2.11,13.67,13.67,0,0,0-.74-3.9c-.77-2.66-1.57-5.4.63-9.62h0a0,0,0,0,0,.05,0s0,0,0,0l.2-.37C10.18,4,21.42,1.73,27.85,2.33c2.53.24,4.06.89,4.46,1.88a.71.71,0,0,0-.07.09s0,0,0,0a0,0,0,0,0,.06,0h0a0,0,0,0,0,0,0l0-.08a8.19,8.19,0,0,1,3.82-2.46,15.51,15.51,0,0,1,6.79-.61c2.92.4,4.37,3.84,5.78,7.17a22.71,22.71,0,0,0,2,4.16,5.6,5.6,0,0,0,3.67,2.1,2.53,2.53,0,0,0,2.1-.75,4,4,0,0,0,.92-2.51c.13-1,.14-2.17.91-2.32a10.71,10.71,0,0,1,2.12-.05,0,0,0,0,1,0,0A12.24,12.24,0,0,1,60.11,15a5.1,5.1,0,0,1-4,3.17,10,10,0,0,1-2.14.22,13.76,13.76,0,0,1-9.09-3.51l0-.07A0,0,0,0,0,44.9,14.8ZM46.36,8c0-.59-.21-1-.41-1s-.4.4-.4,1,.2,1,.4,1S46.36,8.57,46.36,8Z"/><path class="cls-2" d="M44.9,14.8a0,0,0,0,1,0,0l0,.07-.05-.05a.07.07,0,0,1,0-.06h.08Z"/><polygon class="cls-2" points="44.83 14.8 44.83 14.8 44.83 14.8 44.83 14.8"/><path class="cls-2" d="M39.18,31.45a0,0,0,0,1,0,.06l-.05,0,0-.05s0,0,0,0l0,0a0,0,0,0,1,.07,0Z"/><path class="cls-1" d="M39.09,31.49l0,.05a5.19,5.19,0,0,1-3.1.84,8.48,8.48,0,0,1-2.24-.3,3.54,3.54,0,0,1-2.53-1.83c-.25-.9.27-2.75.72-4.38a18.66,18.66,0,0,0,.55-2.23l.11,0v0a.05.05,0,0,0,0-.06h0l1-.31c1.71-.56,3.48-1.13,4.59-.64l.3,0a.07.07,0,0,0,0,0,22.37,22.37,0,0,1,.15,4,12.94,12.94,0,0,0,.48,4.92S39.09,31.48,39.09,31.49Z"/><path class="cls-2" d="M32.59,23.52a.05.05,0,0,1,0,.06v0l-.11,0a.2.2,0,0,0,0-.07s0,0,0,0Z"/><path class="cls-2" d="M32.34,4.29a0,0,0,0,1,0,0h0a0,0,0,0,1-.06,0s0,0,0,0a.71.71,0,0,1,.07-.09Z"/><path class="cls-1" d="M18.11,30.89a4.35,4.35,0,0,1,.57,1.37c-.49,0-4.4.27-5.1-.3,0-.07,0-.28-.12-.35l-.39.14-.08.08h0c0-.82-.07-1.67-.14-2.49-.18-2-.34-3.87.62-4.76a3.08,3.08,0,0,1,2.65-.45l1,.15v0a.07.07,0,0,0-.06,0h0A8.77,8.77,0,0,0,18.11,30.89Z"/><path class="cls-2" d="M17.08,24.33a.07.07,0,0,1,0,.06h0l-.1,0h0A.07.07,0,0,1,17.08,24.33Z"/><path class="cls-2" d="M13.07,31.75v.11a0,0,0,0,1,0,0h0a0,0,0,0,1,0-.05v0h0Z"/><path class="cls-2" d="M8.4,7.19s0,0,0,0a0,0,0,0,1-.05,0h0Z"/><path class="cls-3" d="M45.55,8c0,.59.2,1,.4,1s.41-.4.41-1S46.15,7,46,7,45.55,7.39,45.55,8Z"/><path class="cls-3" d="M44.82,14.81h0"/><path class="cls-3" d="M44.9,14.8a0,0,0,0,1,0,0"/><path class="cls-3" d="M44.83,14.8h.07"/><path class="cls-3" d="M44.82,14.81a.07.07,0,0,0,0,.06l.05.05c-1.65,4.34-.53,12.26,3.41,16a.06.06,0,0,1,0,0s0,0,0,0A9.16,9.16,0,0,1,43,32.36,12,12,0,0,1,40.1,32a1.82,1.82,0,0,1-1-.5"/><path class="cls-3" d="M39.09,31.49s0,0,0,0"/><path class="cls-3" d="M39.18,31.45h0a0,0,0,0,1,0,.06l-.05,0"/><path class="cls-3" d="M39.18,31.45h0a0,0,0,0,0-.07,0l0,0a12.94,12.94,0,0,1-.48-4.92,22.37,22.37,0,0,0-.15-4,.07.07,0,0,1,0,0,5.6,5.6,0,0,0-2.1-3.76,0,0,0,0,1,0-.07s0,0,.06,0"/><path class="cls-3" d="M32.63,23.61v0a.05.05,0,0,0,0-.06h0l1-.31c1.71-.56,3.48-1.13,4.59-.64"/><path class="cls-3" d="M32.31,4.21a8.19,8.19,0,0,1,3.82-2.46,15.51,15.51,0,0,1,6.79-.61c2.92.4,4.37,3.84,5.78,7.17a22.71,22.71,0,0,0,2,4.16,5.6,5.6,0,0,0,3.67,2.1,2.53,2.53,0,0,0,2.1-.75,4,4,0,0,0,.92-2.51c.13-1,.14-2.17.91-2.32a10.71,10.71,0,0,1,2.12-.05,0,0,0,0,1,0,0A12.24,12.24,0,0,1,60.11,15a5.1,5.1,0,0,1-4,3.17,10,10,0,0,1-2.14.22,13.76,13.76,0,0,1-9.09-3.51l0-.07"/><polyline class="cls-3" points="44.9 14.79 44.9 14.8 44.9 14.8"/><path class="cls-3" d="M32.24,4.3a.71.71,0,0,1,.07-.09l0,.08a0,0,0,0,1,0,0h0"/><path class="cls-3" d="M39.09,31.49l0,.05a5.19,5.19,0,0,1-3.1.84,8.48,8.48,0,0,1-2.24-.3,3.54,3.54,0,0,1-2.53-1.83c-.25-.9.27-2.75.72-4.38a18.66,18.66,0,0,0,.55-2.23l.11,0"/><path class="cls-3" d="M38.78,12.86a.05.05,0,0,1,.07,0,0,0,0,0,1,0,.07c-1.6,2.37-3.12,2.32-4.11,1.86a6.49,6.49,0,0,1-2.9-3.71,8.62,8.62,0,0,1-.48-5,5,5,0,0,1,.87-1.75s0,0,0,0a0,0,0,0,0,.06,0h0"/><path class="cls-3" d="M17,24.38h0a.05.05,0,0,1,.1,0h0"/><path class="cls-3" d="M13.46,31.61c.12.07.12.28.12.35.7.57,4.61.34,5.1.3a4.35,4.35,0,0,0-.57-1.37A8.77,8.77,0,0,1,17,24.38l.1,0"/><path class="cls-3" d="M13,31.83l.08-.08v.11a0,0,0,0,1,0,0h0"/><path class="cls-3" d="M17.13,24.3c7.58,1.15,10,.49,11.83,0a8.92,8.92,0,0,1,1.75-.36,9.18,9.18,0,0,0,1.85-.41s0,0,0,0a.2.2,0,0,1,0,.07"/><path class="cls-3" d="M13,31.83h0c0-.82-.07-1.67-.14-2.49-.18-2-.34-3.87.62-4.76a3.08,3.08,0,0,1,2.65-.45l1,.15h.05"/><path class="cls-3" d="M8.36,7.26l0-.07"/><path class="cls-3" d="M13,31.91a3.06,3.06,0,0,1-2.41.48l-.64,0a19.93,19.93,0,0,1-4.31-.89l-.52-.23s0,0,0,0a7.88,7.88,0,0,1,.78-3.51A10.2,10.2,0,0,0,6.69,25a3.37,3.37,0,0,1,.94-2.07,2.91,2.91,0,0,0,.84-2.11,13.67,13.67,0,0,0-.74-3.9c-.77-2.66-1.57-5.4.63-9.62h0a0,0,0,0,0,.05,0s0,0,0,0l.2-.37C10.18,4,21.42,1.73,27.85,2.33c2.53.24,4.06.89,4.46,1.88"/><path class="cls-3" d="M13,31.91h0"/><path class="cls-3" d="M13,31.84v0a0,0,0,0,0,0,.05"/><path class="cls-3" d="M8.36,7.16S1,9.91.24,9.72"/></g></symbol></defs><title>Artboard 1800</title><use width="61.72" height="33.71" transform="translate(30.8 18.64) scale(8.36)" xlink:href="#New_Symbol_22"/></svg>