<?xml version="1.0" standalone="no"?>
<!DOCTYPE svg PUBLIC "-//W3C//DTD SVG 20010904//EN"
 "http://www.w3.org/TR/2001/REC-SVG-20010904/DTD/svg10.dtd">
<svg version="1.0" xmlns="http://www.w3.org/2000/svg"
 width="1280.000000pt" height="1267.000000pt" viewBox="0 0 1280.000000 1267.000000"
 preserveAspectRatio="xMidYMid meet">
<metadata>
Created by potrace 1.15, written by Peter Selinger 2001-2017
</metadata>
<g transform="translate(0.000000,1267.000000) scale(0.100000,-0.100000)"
fill="#000000" stroke="none">
<path d="M8705 12659 c-71 -4 -294 -19 -495 -33 l-365 -26 -115 -50 c-429
-189 -712 -368 -930 -589 -149 -151 -230 -267 -334 -476 -190 -382 -289 -748
-386 -1435 -33 -234 -85 -690 -96 -838 -4 -51 -10 -89 -15 -85 -18 19 -425
1090 -550 1448 -83 235 -122 327 -192 450 -209 367 -489 703 -794 952 -270
220 -501 333 -783 380 -207 34 -616 12 -935 -53 -260 -52 -521 -159 -755 -309
-102 -65 -302 -214 -433 -322 -104 -86 -110 -93 -143 -169 -125 -287 -190
-515 -230 -804 -10 -74 -17 -234 -21 -450 l-6 -335 27 -128 c58 -279 139 -511
261 -752 145 -287 301 -500 550 -751 454 -457 936 -761 1687 -1064 59 -24 106
-45 105 -46 -1 -1 -90 11 -197 26 -467 69 -844 100 -1213 100 -520 0 -697 -42
-987 -233 -290 -192 -568 -511 -838 -963 -185 -311 -266 -479 -407 -843 -131
-336 -146 -612 -59 -1046 35 -178 138 -506 233 -743 182 -456 358 -612 888
-786 309 -101 278 -96 564 -96 669 0 1123 61 1515 205 141 51 421 192 544 273
253 167 523 444 827 847 114 151 317 446 407 593 38 61 71 110 73 108 4 -4
-24 -187 -169 -1101 l-111 -700 -1 -605 c-1 -434 3 -636 12 -715 33 -286 85
-500 156 -650 36 -75 56 -102 122 -166 266 -255 729 -488 1219 -614 223 -57
310 -68 438 -55 596 57 1039 174 1451 381 245 123 230 112 373 295 181 233
246 330 318 479 116 238 180 484 233 890 15 119 16 151 6 213 -89 524 -524
1384 -1329 2627 -11 17 39 -24 110 -91 338 -315 690 -597 1165 -936 329 -234
458 -317 605 -388 246 -120 447 -165 790 -179 167 -7 546 2 641 14 28 4 116
50 290 153 611 362 747 482 1106 979 95 132 96 133 107 215 7 46 34 232 61
413 64 431 77 529 91 715 25 331 -13 687 -103 960 -21 63 -27 71 -267 310
-144 143 -280 269 -327 302 -102 72 -266 154 -415 206 -289 101 -962 239
-1374 282 -395 41 -965 41 -1280 0 -38 -5 -71 -7 -73 -5 -2 2 23 11 55 20 32
9 175 57 317 107 l259 90 101 81 c351 285 567 490 674 642 150 212 306 543
382 810 103 362 140 582 147 868 10 365 -39 650 -182 1064 -143 416 -188 497
-390 698 -361 362 -808 482 -1610 434z"/>
</g>
</svg>
