<svg id="Layer_1" data-name="Layer 1"
    xmlns="http://www.w3.org/2000/svg"
    xmlns:xlink="http://www.w3.org/1999/xlink" width="50" height="50" viewBox="0 0 100 100">
    <defs>
        <clipPath id="clip-path">
            <path d="M3.75,67.86s9.27-7,9.61-8.7.81-18.76,18-28.15,48.51-15.9,60,11.44S76.75,81.36,74.58,81.24s1.6-2.86,1.6-2.86-3.77,3.21-5.49,2.86,1.6-3,1.6-3S69.2,80.79,67.94,80s5.84-4.47,4.92-6.76-24.37-.11-24.37-.11-4.57,8.15-7.78,8.15,2.87-3.23,1.87-4-4.14,5.24-6.3,4,4.26-4.11,3.26-4.94-4.7,3.81-6.52,2.76a.42.42,0,0,1-.24-.27c-.4-1.46,6-3.53,6.21-6.3.24-3.83-11.75-8.85-18.63-7.19a36.13,36.13,0,0,0-4.81,1.44c-2.72,1.11-3.49,2-5.77,2.26a9.92,9.92,0,0,1-6-1.17Z" fill="#804f0d"/>
        </clipPath>
    </defs>
    <title>Artboard 2 copy 22</title>
<path
     style="fill:#000000"
     d="m 148.05877,1689.9681 c -9.34425,-2.5195 -18.36116,-9.9806 -22.89764,-18.9467 -3.05389,-6.036 -3.55766,-15.0266 -1.10745,-19.7647 2.06615,-3.9955 7.62702,-8.6358 13.41844,-11.197 l 4.91639,-2.1743 -1.82549,-6.3646 c -5.41063,-18.8641 -7.84222,-43.9216 -5.63843,-58.1034 2.93864,-18.9107 9.77256,-35.7668 20.74053,-51.1572 7.49631,-10.519 23.41533,-25.8963 34.44826,-33.2761 30.51219,-20.4093 55.73277,-23.347 105.01212,-12.2322 11.82744,2.6676 26.47193,2.9038 30.87425,0.4979 1.66706,-0.9111 3.65376,-2.8608 4.41491,-4.3327 1.3439,-2.5988 4.65164,-21.6008 3.89229,-22.3602 -0.20803,-0.2079 -6.6411,-1.2053 -14.29572,-2.2163 -47.59868,-6.2867 -76.07067,-16.4903 -86.60931,-31.0385 -4.11047,-5.6743 -3.77773,-6.3626 3.08245,-6.3761 9.71655,-0.019 35.10871,-2.5497 47.57813,-4.7413 21.70484,-3.8149 28.47303,-2.9641 49.35774,6.2046 18.56425,8.1501 17.1422,7.9511 22.6879,3.1742 l 4.72586,-4.0707 -3.25499,-4.2621 c -6.741,-8.8265 -19.14828,-28.0218 -23.66079,-36.6057 -5.63399,-10.7172 -10.87528,-24.5783 -12.31838,-32.577 -2.06556,-11.4488 -0.83519,-25.6415 2.69665,-31.1071 1.12481,-1.7407 3.05444,-0.2664 22.26121,17.0067 27.63214,24.8503 30.1945,27.7186 36.67396,41.0524 6.50539,13.3871 10.67089,24.8336 12.37065,33.9936 1.0535,5.6773 1.43325,6.393 3.64621,6.8717 13.21525,2.8592 26.64165,9.3133 34.39653,16.5344 3.17089,2.9527 8.84402,9.9136 12.60695,15.4688 3.76293,5.5552 8.61198,12.2096 10.77566,14.7877 8.6585,10.317 10.25392,14.0832 7.50462,17.7151 -0.74008,0.9778 -2.22788,4.429 -3.30623,7.6694 -3.08577,9.2728 -6.05718,12.5991 -15.7063,17.5828 -4.63713,2.3949 -9.72404,5.827 -11.30421,7.6267 -4.37086,4.9781 -4.55153,6.5165 -3.8572,32.8435 0.32814,12.4419 0.21574,13.4555 -2.15955,19.4744 -7.43522,18.8403 -26.11645,42.6513 -41.72456,53.1819 l -4.86338,3.2812 -0.0327,8.4375 c -0.0298,7.6943 -1.75113,25.492 -3.64209,37.6574 -0.41419,2.6647 -0.40349,5.4695 0.0238,6.233 0.42727,0.7635 2.99469,1.8848 5.70537,2.4916 2.71068,0.6069 6.08494,1.543 7.49835,2.0804 3.64981,1.3876 6.33641,6.2012 6.33641,11.3529 0,10.0276 -2.83798,11.4981 -20.65968,10.7056 -16.14183,-0.718 -20.16087,-2.6327 -26.01862,-12.3959 -3.45414,-5.757 -8.73116,-19.7997 -11.44967,-30.4687 -1.11675,-4.3828 -2.18147,-8.1203 -2.36602,-8.3054 -0.18455,-0.1852 -1.6167,0.5756 -3.18254,1.6906 -5.95927,4.2434 -19.40848,9.2455 -43.19847,16.0667 l -4.21875,1.2096 4.21875,0.6935 c 2.32031,0.3815 8.01563,0.7252 12.65625,0.7638 12.10267,0.1008 28.40179,3.9265 33.33136,7.8236 2.65809,2.1014 7.25788,9.6129 8.33414,13.6099 1.02328,3.8001 0.21975,7.6352 -1.62036,7.7335 -5.89064,0.3146 -83.22152,1.3483 -96.29514,1.2872 -19.59075,-0.092 -23.47148,-0.7557 -44.0625,-7.5407 l -10.3125,-3.3981 -9.03301,4.3656 c -13.58655,6.5663 -25.57671,8.5363 -35.56447,5.8433 z"
     id="path4166" />
</svg>