<svg id="Layer_1" data-name="Layer 1" xmlns="http://www.w3.org/2000/svg" xmlns:xlink="http://www.w3.org/1999/xlink" width="50" height="50" viewBox="0 0 100 100"><defs><clipPath id="clip-path"><path d="M3.75,67.86s9.27-7,9.61-8.7.81-18.76,18-28.15,48.51-15.9,60,11.44S76.75,81.36,74.58,81.24s1.6-2.86,1.6-2.86-3.77,3.21-5.49,2.86,1.6-3,1.6-3S69.2,80.79,67.94,80s5.84-4.47,4.92-6.76-24.37-.11-24.37-.11-4.57,8.15-7.78,8.15,2.87-3.23,1.87-4-4.14,5.24-6.3,4,4.26-4.11,3.26-4.94-4.7,3.81-6.52,2.76a.42.42,0,0,1-.24-.27c-.4-1.46,6-3.53,6.21-6.3.24-3.83-11.75-8.85-18.63-7.19a36.13,36.13,0,0,0-4.81,1.44c-2.72,1.11-3.49,2-5.77,2.26a9.92,9.92,0,0,1-6-1.17Z" fill="#804f0d"/></clipPath></defs><title>Artboard 2 copy 22</title><path d="M62.41,71.33c-.13-.33-.73-.56-1.66-.73a28.35,28.35,0,0,1,6.81-3.45c4.32-1.33,7.73-.12,10.76,2.19-5.4,6.92-13.06,10.06-14.19,10-1.49-.08-.2-1.38.77-2.2-1.21.92-3.45,2.45-4.66,2.2-1.72-.34,1.6-3,1.6-3s-3.09,2.52-4.35,1.71S63.33,73.62,62.41,71.33Z" fill="#533200"/><path d="M29.49,69.66c.08-1.39-1.47-4.85-3.8-6.18,2.25-1.59,3.61-.24,6.18-1,5.93-1.68,9.79,3,10.23,8.38-2.42.18-4.06.33-4.06.33s-4.58,8.15-7.78,8.15,2.86-3.23,1.87-4-4.15,5.24-6.3,4,4.25-4.11,3.26-4.94-4.7,3.81-6.52,2.76a.43.43,0,0,1-.24-.27C21.93,75.46,29.31,72.44,29.49,69.66Z" fill="#533200"/><polygon points="72.01 25.38 84.75 24.68 72.56 27.09 73.31 26.01 72.01 25.38" fill="#feeba8"/><polygon points="59.77 23.19 71.89 19.21 60.74 24.7 61.19 23.46 59.77 23.19" fill="#feeba8"/><path d="M3.75,67.86s9.27-7,9.61-8.7.81-18.76,18-28.15,48.51-15.9,60,11.44S76.75,81.36,74.58,81.24s1.6-2.86,1.6-2.86-3.77,3.21-5.49,2.86,1.6-3,1.6-3S69.2,80.79,67.94,80s5.84-4.47,4.92-6.76-24.37-.11-24.37-.11-4.57,8.15-7.78,8.15,2.87-3.23,1.87-4-4.14,5.24-6.3,4,4.26-4.11,3.26-4.94-4.7,3.81-6.52,2.76a.42.42,0,0,1-.24-.27c-.4-1.46,6-3.53,6.21-6.3.24-3.83-11.75-8.85-18.63-7.19a36.13,36.13,0,0,0-4.81,1.44c-2.72,1.11-3.49,2-5.77,2.26a9.92,9.92,0,0,1-6-1.17Z" fill="#804f0d"/><g clip-path="url(#clip-path)"><polygon points="30.89 47.79 43.01 43.81 31.86 49.3 32.3 48.06 30.89 47.79" fill="#feeba8"/><polygon points="31.73 57.59 44.46 56.88 32.28 59.29 33.02 58.21 31.73 57.59" fill="#feeba8"/><polygon points="33.02 63.56 45.51 66.17 33.11 65.35 34.12 64.5 33.02 63.56" fill="#feeba8"/><polygon points="26.86 41.8 37.53 34.82 28.19 43 28.3 41.69 26.86 41.8" fill="#feeba8"/><path d="M11.62,56.88S15,41.41,26.86,36.54l-3.69,7.27s3.06-2.42,9.27-2.79l-5.58,6.83a17,17,0,0,1,8.82-2.34l-6.11,6.54a14.11,14.11,0,0,1,9.26.53l-7.1,4s5.64.58,8.28,3.83l-7.81.84S38,62.8,38.73,67a25.49,25.49,0,0,1-7.84-.67c-4.14-1-19.65,5.82-19.65,5.82L6.56,61.25Z" fill="#a36200"/><path d="M13.36,59.16s.53-7,4.33-7S20.44,55,20.44,55A3.52,3.52,0,0,1,22,52.45a3.1,3.1,0,0,1,3.3.15c1.95,1.51,1.26,6.61-1.16,9.92-1.24,1.69-2.65,2.49-5.48,4.09a84.31,84.31,0,0,1-9.39,4h0l-7.18-2Z" fill="#533200"/></g><polygon points="65.77 56.58 78.25 59.19 65.86 58.37 66.86 57.52 65.77 56.58" fill="#feeba8"/><polygon points="67.94 65.78 79.33 71.53 67.57 67.53 68.76 66.97 67.94 65.78" fill="#feeba8"/><polygon points="64.56 39.3 76.68 35.32 65.53 40.81 65.98 39.57 64.56 39.3" fill="#feeba8"/><polygon points="65.47 30.8 77.59 26.82 66.45 32.3 66.89 31.06 65.47 30.8" fill="#feeba8"/><polygon points="78.66 31.09 91.4 30.38 79.21 32.79 79.96 31.71 78.66 31.09" fill="#feeba8"/><polygon points="83.76 38.01 96.25 40.62 83.85 39.8 84.86 38.95 83.76 38.01" fill="#feeba8"/><polygon points="84.31 45.94 95.7 51.7 83.94 47.69 85.13 47.13 84.31 45.94" fill="#feeba8"/><polygon points="83.94 55.41 94.09 63.13 83.25 57.07 84.52 56.73 83.94 55.41" fill="#feeba8"/><polygon points="80.71 65.17 91.38 72.15 80.14 66.86 81.38 66.44 80.71 65.17" fill="#feeba8"/><polygon points="32.44 31.7 40.94 22.2 34.03 32.52 33.79 31.23 32.44 31.7" fill="#feeba8"/><polygon points="40.01 39.01 50.68 32.03 41.34 40.21 41.45 38.9 40.01 39.01" fill="#feeba8"/><polygon points="44.08 50.17 56.82 49.47 44.63 51.88 45.38 50.8 44.08 50.17" fill="#feeba8"/><polygon points="64.26 47.35 77 46.64 64.81 49.06 65.56 47.98 64.26 47.35" fill="#feeba8"/><polygon points="51.99 39.51 64.11 35.53 52.97 41.02 53.41 39.78 51.99 39.51" fill="#feeba8"/><polygon points="55.37 30.59 66.05 23.6 56.7 31.79 56.81 30.48 55.37 30.59" fill="#feeba8"/><polygon points="47.75 28.07 56.25 18.56 49.34 28.88 49.1 27.59 47.75 28.07" fill="#feeba8"/><polygon points="50.01 58.64 62.49 61.25 50.1 60.43 51.1 59.58 50.01 58.64" fill="#feeba8"/><polygon points="50.88 64.86 62.9 69.13 50.73 66.65 51.84 65.94 50.88 64.86" fill="#feeba8"/><polygon points="22.41 39.28 28.16 27.9 24.16 39.66 23.59 38.47 22.41 39.28" fill="#feeba8"/><path d="M22,56.56c0,.69.38,1.26.84,1.26s.83-.57.83-1.26-.37-1.27-.83-1.27S22,55.86,22,56.56Z"/><path d="M15.76,56.56c0,.69.37,1.26.84,1.26s.83-.57.83-1.26-.37-1.27-.83-1.27S15.76,55.86,15.76,56.56Z"/><path d="M8.77,67.86a.4.4,0,0,0-.8,0,.4.4,0,0,0,.8,0Z" fill="#4e220e"/><path d="M5.92,67.86a.4.4,0,0,0-.8,0,.4.4,0,0,0,.8,0Z" fill="#4e220e"/></svg>